/* XPM */
static char *_810068d45e449d0e67b30868c00de34r4Hf3C42uvBc7oaa[] = {
/* columns rows colors chars-per-pixel */
"80 80 240 2 ",
"   c #C90000",
".  c #D90000",
"X  c #E60000",
"o  c #EC0000",
"O  c #F20000",
"+  c #F20B00",
"@  c #EC021B",
"#  c #F01812",
"$  c #F42E17",
"%  c #ED0021",
"&  c #EE1A2B",
"*  c #EB053B",
"=  c #ED252C",
"-  c #F12C29",
";  c #ED2E33",
":  c #EA2B39",
">  c #ED3237",
",  c #ED3439",
"<  c #ED3B3C",
"1  c #F1393B",
"2  c #F36E00",
"3  c #F47400",
"4  c #F47B00",
"5  c #F47D17",
"6  c #F04538",
"7  c #F26E23",
"8  c #EC0943",
"9  c #EC3C42",
"0  c #EA3A48",
"q  c #F13C44",
"w  c #D65457",
"e  c #ED4244",
"r  c #ED4549",
"t  c #EC484C",
"y  c #F1454A",
"u  c #EC4D53",
"i  c #ED5355",
"p  c #E95559",
"a  c #F25659",
"s  c #F17744",
"d  c #E95E65",
"f  c #D76C7B",
"g  c #F1676A",
"h  c #EC6772",
"j  c #F17477",
"k  c #F58400",
"l  c #F68F00",
"z  c #F79800",
"x  c #F58917",
"c  c #F9A602",
"v  c #F7BA00",
"b  c #F3B20E",
"n  c #F9BC18",
"m  c #F58525",
"M  c #F7992A",
"N  c #F58634",
"B  c #F69434",
"V  c #F69738",
"C  c #F8A726",
"Z  c #F8AA25",
"A  c #F7A32A",
"S  c #F8A629",
"D  c #F8A92A",
"F  c #F9B325",
"G  c #FBBC22",
"H  c #FCB82C",
"J  c #F8A633",
"K  c #F8AA34",
"L  c #F7A239",
"P  c #F8A63D",
"I  c #F8AA3A",
"U  c #F4B637",
"Y  c #FFC500",
"T  c #FFCA00",
"R  c #FFC917",
"E  c #FCCC1E",
"W  c #FDD31D",
"Q  c #FDDC1A",
"!  c #FFF70F",
"~  c #FEEC15",
"^  c #FDE119",
"/  c #FFF212",
"(  c #FBC221",
")  c #FCCB22",
"_  c #FDC52B",
"`  c #FCCA2D",
"'  c #FED226",
"]  c #FAC936",
"[  c #FDCE3C",
"{  c #FED13C",
"}  c #F58A45",
"|  c #F79B42",
" . c #EB945A",
".. c #F5925A",
"X. c #F7A343",
"o. c #F8AD40",
"O. c #F7B947",
"+. c #EEBD54",
"@. c #F69867",
"#. c #EF9A70",
"$. c #D9BD7B",
"%. c #F6A468",
"&. c #EABD6A",
"*. c #F4A278",
"=. c #E7BE77",
"-. c #FECD48",
";. c #FFD242",
":. c #F8CA58",
">. c #FED15C",
",. c #F5CA65",
"<. c #FFD467",
"1. c #E9C279",
"2. c #FED878",
"3. c #D97887",
"4. c #D97B8D",
"5. c #D67B95",
"6. c #F27F81",
"7. c #72BFEA",
"8. c #3BC8FB",
"9. c #47C6F9",
"0. c #57C9F8",
"q. c #78C3EA",
"w. c #7ECCED",
"e. c #66C7F1",
"r. c #65C9F2",
"t. c #6CCAF4",
"y. c #7ECFF0",
"u. c #7ED1F4",
"i. c #7BD7FC",
"p. c #BA93A9",
"a. c #B19BB5",
"s. c #DC818F",
"d. c #DF9E9C",
"f. c #E5878F",
"g. c #F28C8D",
"h. c #E89D9E",
"j. c #F3999B",
"k. c #D9BB8E",
"l. c #D1BC9E",
"z. c #F7A781",
"x. c #E8B18D",
"c. c #F8B69A",
"v. c #C293A8",
"b. c #D292A5",
"n. c #F29AA1",
"m. c #CEB3AD",
"M. c #C4A2BA",
"N. c #F4A4A5",
"B. c #F6ACAE",
"V. c #F8BBA3",
"C. c #F0B3B2",
"Z. c #F6B7B8",
"A. c #E7C984",
"S. c #F2CC8C",
"D. c #FCD887",
"F. c #E7D299",
"G. c #FEDC96",
"H. c #FFE096",
"J. c #CCC3B4",
"K. c #FBDCA6",
"L. c #F4D3AC",
"P. c #FACAB7",
"I. c #F5DCB4",
"U. c #FEE3A9",
"Y. c #FEE5B3",
"T. c #FBE7BB",
"R. c #9BBDD5",
"E. c #B7B9C4",
"W. c #B8B0CA",
"Q. c #C8ABC1",
"!. c #8BC3DD",
"~. c #95C5DB",
"^. c #ADCDD9",
"/. c #85C6E4",
"(. c #8DC6E3",
"). c #83CCE9",
"_. c #8ACCEA",
"`. c #91C6E0",
"'. c #96CDE8",
"]. c #98D1EA",
"[. c #82CEF0",
"{. c #85D4F5",
"}. c #8CD6F6",
"|. c #85D6FA",
" X c #8DD7F8",
".X c #85DCFE",
"XX c #8BDBFB",
"oX c #93D6F5",
"OX c #99D6F3",
"+X c #92D8F7",
"@X c #9ADAF5",
"#X c #93DAF9",
"$X c #9CDCFA",
"%X c #A8CEE8",
"&X c #A3D6E8",
"*X c #A6DCF6",
"=X c #A3DEFA",
"-X c #86E1FF",
";X c #95E2FF",
":X c #ACE2F9",
">X c #A9E6FC",
",X c #B3E4FA",
"<X c #BCE6FB",
"1X c #C6CDD4",
"2X c #F7C7C8",
"3X c #FAD8C7",
"4X c #FBDBCE",
"5X c #FBD8D8",
"6X c #D3E0DB",
"7X c #EDE2C9",
"8X c #FBE7C6",
"9X c #FEECC9",
"0X c #FFF1CE",
"qX c #E9E5D8",
"wX c #FDE5D9",
"eX c #FFF2D8",
"rX c #CBDCE4",
"tX c #C3DDEB",
"yX c #CADFEA",
"uX c #D8DDE4",
"iX c #C7E9FB",
"pX c #D3EDFB",
"aX c #DDEFFA",
"sX c #D9F2FE",
"dX c #EBE8EA",
"fX c #FBE8E4",
"gX c #F5EAEA",
"hX c #FCEBEA",
"jX c #FCF6E9",
"kX c #FDF4EB",
"lX c #ECEDF3",
"zX c #E5F4FD",
"xX c #E8F4F8",
"cX c #EBF7FD",
"vX c #EDF8FE",
"bX c #FEF5F3",
"nX c #FEFAF4",
"mX c #F6F5F9",
"MX c #F4FAFE",
"NX c #FFFFFF",
/* pixels */
"NXNXNXNXNXNXNXNXNXNXNXNXNXNXNXNXNXNXNXNXNXNXNXNXNXNXNXNXNXNXNXNXNXNXNXNXNXNXNXNXNXNXNXNXNXNXNXNXNXNXNXNXNXNXNXNXNXNXNXNXNXNXNXNXNXMXMXzXsXdXZ.2X2X5XfXbXNXNXNXNX",
"NXNXNXNXNXNXNXNXNXNXNXNXNXNXNXNXNXNXNXNXNXNXNXNXNXNXNXNXNXNXNXNXNXNXNXNXNXNXNXNXNXNXNXNXNXNXNXNXNXNXNXNXNXNXNXNXNXNXNXNXNXMXcXsXiX,X:X:X>X*Xg = q q a j B.fXNXNX",
"NXNXNXNXNXNXNXNXNXNXNXNXNXNXNXNXNXNXNXNXNXNXNXNXNXNXNXNXNXNXNXNXNXNXNXNXNXNXNXNXNXNXNXNXNXNXNXNXNXNXNXNXNXNXNXNXNXNXNXMXsX<X:X:X:X,X,X,X,X:X1Xa h h g a q y fXNX",
"NXNXNXNXNXNXNXNXNXNXNXNXNXNXNXNXNXNXNXNXNXNXNXNXNXNXNXNXNXNXNXNXNXNXNXNXNXNXNXNXNXNXNXNXNXNXNXNXNXNXNXNXNXNXNXNXNXzXiX:X:X:X,X,X:X:X:X=X=X*X$Xb.# a a a j 1 B.NX",
"NXNXNXNXNXNXNXNXNXNXNXNXNXNXNXNXNXNXNXNXNXNXNXNXNXNXNXNXNXNXNXNXNXNXNXNXNXNXNXNXNXNXNXNXNXNXNXNXNXNXNXNXNXNXNXcXiX:X:X,X:X:X@X@X X+X}. X X XXXoXd O 0 = e = h NX",
"NXNXNXNXNXNXNXNXNXNXNXNXNXNXNXNXNXNXNXNXNXNXNXNXNXNXNXNXNXNXNXNXNXNXNXNXNXNXNXNXNXNXNXNXNXNXNXNXNXNXNXNXNXMXiX:X:X:X:X$X#X+X+X+X@X+X+X+XoX+XoXXX%Xu O 0 ; , o gX",
"NXNXNXNXNXNXNXNXNXNXNXNXNXNXNXNXNXNXNXNXNXNXNXNXNXNXNXNXNXNXNXNXNXNXNXNXNXNXNXNXNXNXNXNXNXNXNXNXNXNXNXNXsX,X:X,X>XoX X+X}.|.{.{.{.}.+X+XoX+X+XoXXX%Xt o e r o 2X",
"NXNXNXNXNXNXNXNXNXNXNXNXNXNXNXNXNXNXNXNXNXNXNXNXNXNXNXNXNXNXNXNXNXNXNXNXNXNXNXNXNXNXNXNXNXNXNXNXNXNXMXiX:X:X=X#X X X}.{.$X,XiXiX<X=X}.{.+X+X+X XoX.X'.h O r o Z.",
"NXNXNXNXNXNXNXNXNXNXNXNXNXNXNXNXNXNXNXNXNXNXNXNXNXNXNXNXNXNXNXNXNXNXNXNXNXNXNXNXNXNXNXNXNXNXNXNXNXvX<X:X:X#X}.+X+X{.*XaXMXNXjXjXbXNXcX<X}.+X+X+X+XoXXXoXb.- o B.",
"NXNXNXNXNXNXNXNXNXNXNXNXNXNXNXNXNXNXNXNXNXNXNXNXNXNXNXNXNXNXNXNXNXNXNXNXNXNXNXNXNXNXNXNXNXNXNXNXcX,X:X$X}.+X+X+X}.iXNXjXH.{ T T R 2.9XNXzX#X}.+X+X+X+X XXXR.u N.",
"NXNXNXNXNXNXNXNXNXNXNXNXNXNXNXNXNXNXNXNXNXNXNXNXNXNXNXNXNXNXNXNXNXNXNXNXNXNXNXNXNXNXNXNXNXNXNXcX,X:X@X}.oX+X+X{.pXNXU.T v k.J.J.l.+.Y D.0X7X#X}.+X+X+X+XoXXX{.uX",
"NXNXNXNXNXNXNXNXNXNXNXNXNXNXNXNXNXNXNXNXNXNXNXNXNXNXNXNXNXNXNXNXNXNXNXNXNXNXNXNXNXNXNXNXNXNXcX,X>X@X+X+X+X+X{.pXNXG.v l.7.8.8.8.8.0.E.R T 9XzX}.+X+X+X+X}.$Xi.pX",
"NXNXNXNXNXNXNXNXNXNXNXNXNXNXNXNXNXNXNXNXNXNXNXNXNXNXNXNXNXNXNXNXNXNXNXNXNXNXNXNXNXNXNXNXNXcX,X:X#X XoX+XoX{.pXNXT.v J.0.t.u.w.w.u.t.0.^.R D.NX<X{.+X+X+X+X#X{.aX",
"NXNXNXNXNXNXNXNXNXNXNXNXNXNXNXNXNXNXNXNXNXNXNXNXNXNXNXNXNXNXNXNXNXNXNXNXNXNXNXNXNXNXNXNXvX,X=X+X XoX+X+X{.pXNXnXT A..X@X@X+X+X+X#XOX@Xi.1Xv 0XcX}.+X+X}.+XoX}.zX",
"NXNXNXNXNXNXNXNXNXNXNXNXNXNXNXNXNXNXNXNXNXNXNXNXNXNXNXNXNXNXNXNXNXNXNXNXNXNXNXNXNXNXNXcX,X$X+X+XoXoXoX|.sXNXNX8XY ^.-X@X#X@X@X@X#X@X@X$X].+.2.MX=X X+X+XoX X#XMX",
"NXNXNXNXNXNXNXNXNXNXNXNXNXNXNXNXNXNXNXNXNXNXNXNXNXNXNXNXNXNXNXNXNXNXNXNXNXNXNXNXNXNXvX,X$X+X+X+X+X X.X6XT.NXNXD.O.[.u.u.u.u.u.u.u.u.u.{.t.l.R nX,X|.+X+X#X}.:XNX",
"NXNXNXNXNXNXNXNXNXNXNXNXNXNXNXNXNXNXNXNXNXNXNXNXNXNXNXNXNXNXNXNXNXNXNXNXNXNXNXNXNXvX,X@X+X+X+X+X+X{.pXnXeXNXMX2.&.|.}.{.{.}.{.{.{.{.{.oXi.J.T jX<X{.#X+X#X{.iXNX",
"NXNXNXNXNXNXNXNXNXNXNXNXNXNXNXNXNXNXNXNX2Xg.j j.Z.2XfXhXNXNXNXNXNXNXNXNXNXNXNXNXvX:X+X X+X+X+X+X|.pXNXNXNXNXNX2.&.}.oXoXoXoXoXoX+XoX#XOXi.J.T jX<X.X#X+X+X{.zXNX",
"NXNXNXNXNXNXNXNXNXNXNXNXNXNXNXNXNXNXNXB.q a a , & & 9 g g.N.2X5XfXbXNXNXNXNXNXcX:X+X X+X+X+X+X{.pXNXNXNXMXNXNXG.n q.0.t.r.r.r.r.r.r.r.t.0.k.{ nX:X{.#XOX}.=XNXNX",
"NXNXNXNXNXNXNXNXNXNXNXNXNXNXNXNXNXNXB.y g u 1 9 e 9 < = o o o @ t j j.Z.2X5XxX:X+X+X+X+X+X+X[.pXNXMXNXNXNXNXNX8XY E.8.q.r.r.r.r.r.r.t.0.q.v G.MXoX+X+X#X{.iXMXNX",
"NXNXNXNXNXNXNXNXNXNXNXNXNXNXNXNXNXB.y a ; = > > > > , < e e e , & o o o o f.=X}.oX+X+X+X}.}.pXNXNXNXNXNXNXnXNXmX-.+.q.0.q.e.r.r.e.q.r.8.l.Y eXpX{.+X+X+X XcXNXNX",
"NXNXNXNXNXNXNXNXNXNXNXNXNXNXNXNXB.q i ; ; , > > > > > > > > > < < e u O f.*XXXoX+X+X X+X}.pXNXNXNXNXNXNXNXMXnXNX8XY $.7.8.0.r.r.r.9.9.m.v K.mXOX XoX@X{.,XNXNXNX",
"NXNXNXNXNXNXNXNXNXNXNXNXNXNXNXB.q r > > > > > > > > > > > > > > > 9 O f.$XXXoX+X+X+X#X{.:XNXNXMXNXnXNXNXNXNXNXNXMXI.Y +.E.q.r.0.e.R.k.Y D.bX,X_.+X+X+X{.zXNXNXNX",
"NXNXNXNXNXNXNXNXNXNXNXNXNXNXB.; 9 ; > > > > > > > > > > > > > , 9 O s.@XXXoX+X+X+X X@X{.*XNXNXNXMXNXNXNXNXNXNXNXNXNX7X` Y G &.&.O.Y Y K.nXtX{.+X+X#X{.:XMXNXNXNX",
"NXNXNXNXNXNXNXNXNXNXNXNXNXB.@ , > > > > > > , > > > > > > > > 9 O 4.#XXXoX+X+X+X+X+X+X+X{.yXNXNXNXNXNXMXNXNXNXNXNXNXNXgXI.D.:.:.<.L.qXNXyXy.@X XoX X}.zXNXNXNXNX",
"NXNXNXNXNXNXNXNXNXNXNXNXB.o < , > > > > > > > > > > > , > > e o 3.@XXXoX+X+X X+X X+X+X+X+Xw.yXNXNXNXNXnXNXNXNXNXNXNXNXNXMXNXmXmXMXNXNXtXu.+X+X X#X{.,XNXNXNXNXNX",
"NXNXNXNXNXNXNXNXNXNXNXB.o 9 < > , > > > > > > > > > , > > r o g.$X.XOX+X+X X+X+X+X+X+X X+X+Xw.yXNXNXNXNXMXNXnXNXNXNXMXNXNXNXNXNXnXNXtXy.@X+X X X X#XvXNXMXNXNXNX",
"NXNXNXNXNXNXNXNXNXNXZ.o 9 9 ; > > > > > > > > > > > > > e o g.NXqX}.XX+X+X+X+X+X+X+X+X+X+XoX#Xy.rXNXNXNXnXNXNXNXNXNXNXNXNXNXnXNXU.1Xu.#X X+X+X@X{.pXNXNXNXNXNXNX",
"NXNXNXNXNXNXNXNXNXNXN.o i ; > > > > > > > > > > > > , 9 o n.NX0XT F.+XXXoX+X+X+X+X+X+X+X+X+X+X#X).yXnXY.bXMXNXNXnXNXNXMXNXNXNXNX1Xy.#X+X XoX#X{.,XNXNXNXNXNXNXNX",
"NXNXNXNXNXNXNXNXNXNXhXa o r ; > > > , > > > > > > > < 8 2 8X9XY ) T F.#X{.@X+X+X+X+X X+X+X+X+X.X.Xy.rXjXNXNXNXNXNXNXNXNXMXNXNXtX{.#X+X X+X#X}.@XMXNXNXNXNXNXNXNX",
"NXNXNXNXNXNXNXNXNXNXNXfXi o e > > > > > > , > > , 1 * s Y Y.K.Y T >.jXxX}. X+X+X+X X+X X+X+X#XQ.M.OXy.yXNXNXNXNXNXNXNXNXNXNXtXw.+X+X XoX#X X XcXNXNXNXNXNXNXNXNX",
"NXNXNXNXNXNXNXNXNXNXNXNXhXi o e > > > > > > > , < % 7 T U.NXNXU.<.jXMXNXxX XXX+X+X+X+X+X+X.Xm.a $ b.-Xw.rXNXNXMXNXNXNXNXNXtXw.oXoX X+X#X X XzXNXNXNXNXNXNXNXNXNX",
"NXNXNXNXNXNXNXNXNXNXNXNXNXhXi o e > > > > > , 9 o s.^.T.NXMXMXjXT.MXNXMXU.A.#XXX#XoXoX+X.XM.y e O W.XX@Xw.yXNXNXMXNXNXNXtXu.@X X+X+X@X}.+XzXNXNXNXNXNXNXNXNXNXNX",
"NXNXNXNXNXNXNXNXNXNXNXNXNXNXhXi o e ; > > > 9 O 4.+Xi.=XMXNXnX<.T 9XNXY.T T A.+XXX#XoX.XQ.6 > O v..X+XoX#Xw.yXNXNXNXNXtXw.+X+X+X X+X|.+XzXNXMXNXNXNXNXNXNXNXNXNX",
"NXNXNXNXNXNXNXNXNXNXNXNXNXNXNXhXi o t ; > e O 4.#XXX#X{.=XjX<.T T ` Y.T T T 2.xX X}..XM.> > O v.y.+X+X+X+X#Xw.yXMXnX<X).#X+X X+X@X}.+XcXNXNXNXNXNXNXNXNXNXNXNXNX",
"NXNXNXNXNXNXNXNXNXNXNXNXNXNXbXNXhXi o t 0 O 4.+X XoX+XOXXX].:.T T 8XNXU.T 2.nXNXzX;XM.$ 1 + v.).'.+X+X+X+X+X+X[.%X&X).oX+X X X@X}.+XzXNXNXNXNXNXNXNXNXNXNXNXNXNX",
"NXNXNXNXNXNXNXNXNXNXNXNXNXNXNXNXNXhXh @ O 4.+X XoX X X#XoX.X&X,.T.MXNXMXY.nXMXNXNXC.@ > # v.).(._.#X+X+X+X}.+X+X{.|.@X X+X X+X}.+XzXNXMXNXNXNXNXNXNXNXNXNXNXNXNX",
"NXNXNXNXNXNXNXNXNXNXNXNXNXNXNXNXNXNX3X6 5.OX.XOX#XoX#XoX+X+X.X&XMXNXNXjX<.8XNXNXc.O 9 @ v.).(.(.}.#X+X+X+X+X+X+X@X@X X+X+X@X}.+XzXNXNXNXNXNXNXNXNXNXNXNXNXNXNXNX",
"NXNXNXNXNXNXNXNXNXNXNXNXNXNXNXNXNXG.T ,.]..XOX+X+X+XoX X+X+XOX|.=XMXjX-.T T 0XV.o 0 o d._./.~.(.+X+X+X+X+X+X+X+X}. XoX+X+X X XzXNXNXNXNXNXNXNXNXNXNXNXNXNXNXNXNX",
"NXNXNXNXNXNXNXNXNXNXNXNXNXNXNXNXNX-.T R A.OX.X+X+X+X+X X+X+X+X+X}.=X2.T ;.{ ..@ , o x.gXuX(./.(.+X+X+X+X+X+X+X}.+X+X+X#X X XcXNXNXNXNXNXNXNXNXNXNXNXNXNXNXNXNXNX",
"NXNXNXNXNXNXNXNXNXNXNXNXNXNXNXNXNX0XY E Y A.OXXXoX+X+X+X+X+X+X+X+X|.&X,.' *.8 , @ d.xXdXdX6X/.}.@X+X+X X X+X+X+X+X X#X X+XzXNXNXNXNXNXNXNXNXNXNXNXNXNXNXNXNXNXNX",
"NXNXNXNXNXNXNXNXNXNXNXNXNXNXNXNXNXNXeX[ [ T 1.oXXX@X+X+X+X+X+X+X+XOX.X&X#.* , 8  .I.lXlXdX,.$._.XX+X+X+X+X+X+X+X+X#X X XxXNXNXNXNXNXNXNXNXNXNXNXNXNXNXNXNXNXNXNX",
"NXNXNXNXNXNXNXNXNXNXNXNXNXNXNXNXbXhXhXK.T ;.T A.+X.XoX+X X+X+X XOX+X-XM.* - : #.U v Y.qX1.v v A.}.}.+X+X+X+X+X+XoXXXoX4.5XNXNXNXNXNXNXNXNXNXNXNXNXNXNXNXNXNXNXNX",
"NXNXNXNXNXNXNXNXNXNXNXNXNXkX3Xc.*.V l B K ' { T 1.oXXXOX+X+X+X X+X.XM.o - 8 #.` U v ,.F.Y b v U.zX X}.@X X+X}.oX X+Xs.O 2XNXNXNXNXNXNXNXNXNXNXNXNXNXNXNXNXNXNXNX",
"NXNXNXNXNXNXNXNXNXNXNXNXP.@.k l z c S b C F _ [ T A.#XXXoX+XoXoX.XM.o 9 o p.~.+.v +.7XdXF.v Y.MXNXzXXX X@XXXoXXXoX4.+ o B.NXNXNXNXNXNXNXNXNXNXNXNXNXNXNXNXNXNXNX",
"NXNXNXNXNXNXNXNXNXNXwX#.4 z K o.I I J J S D H _ [ T A.OX.XOXoX.XM.O , + p.)./.~.$.7XlXlXdXI.NXNXNXjXF.+XXX@XXXoX4.O u X g.NXNXNXNXNXNXNXNXNXNXNXNXNXNXNXNXNXNXNX",
"NXNXNXNXNXNXNXNXNXwXm k I I D S D A Z ) ^ ~ / W _ [ T A.oX}.XXM.o > o p.[.`.`.).].dXgXdXI.` 9XNXjX>.T F._..XoX4.o 9 r o g bXNXNXNXNXNXNXNXNXNXNXNXNXNXNXNXNXNXNX",
"NXNXNXNXNXNXNXNXwX4 x I D C S S A ( ~ ! / ! / / W ` { T 1.XXW.O ; o p.).`.(.(.`./.~.dXU.T T Y T.<.T ) T qX$X3.O 9 > < = > fXNXNXNXNXNXNXNXNXNXNXNXNXNXNXNXNXNXNX",
"NXNXNXNXNXNXNXkX} k K C S S D M ' ! / / / / / / / ' _ { T F.f o X p.).`.`.(.(.(.(./.].,.T T <.jXK.Y Y 0XNXg.o 9 , > , 9 o 5XNXNXNXNXNXNXNXNXNXNXNXNXNXNXNXNXNXNX",
"NXNXNXNXNXNXNXc.3 P C S D D M ) ! / / / / / / / / / W _ ` T H f a._.(.(.(.(.(.(.!.]..X&X:.<.nXNXNXU.9XNXg.o e > > > > r o Z.NXNXNXNXNXNXNXNXNXNXNXNXNXNXNXNXNXNX",
"NXNXNXNXNXNX5X3 B C S S S C G / / / / / / / / / / / / ' _ { T A._./.~./.(.(.(.!._.#XoX.X&XlXNXMXNXY.8Xn.o r > > > > ; t o j.NXNXNXNXNXNXNXNXNXNXNXNXNXNXNXNXNXNX",
"NXNXNXNXNXNX*.4 J D D S F G ^ / ~ / / / / / / / / / / ! ' _ ` T =.`._.`._.(.(.}.#X#X+XOX|.>XMXMXU.Y 2 o e > > > > > > e o j NXNXNXNXNXNXNXNXNXNXNXNXNXNXNXNXNXNX",
"NXNXNXNXNX4X5 M D S S C G ( ~ / / / / / / / / ~ / / / / / ) _ ] T 1.!._.`.(._.+X+X+X+X+XoX{.=XT.Y s 8 9 > > , > > > > 9 & r hXMXNXNXNXNXNXNXNXNXNXNXNXNXNXNXNXNX",
"NXNXNXNXNXc.3 J D S C G G W / / / / / / / / / / / / / ~ / / ) H { T =.!._._.+X+X+X+X+X+X+X@X.X^.7 * < > > > > > > > > , < o 5XNXNXNXNXNXNXNXNXNXNXNXNXNXNXNXNXNX",
"NXNXNXNXbX..k I C S F E G ^ / / / / / / / / / / / / / / / / / ) H [ T =.'.XXoX+X+X+X+X}.oXXX@X5.% < > > > > > > > > > ; t o 2XNXNXNXNXNXNXNXNXNXNXNXNXNXNXNXNXNX",
"NXNXNXNX4X4 B D D C G G ( ~ / / / / / / / / / / / / / / / / / ! ) H [ T 1.oX.X+X+X+X+XoXXX}.4.O 9 < ; > > > > > > > > ; t o N.NXNXNXNXNXNXNXNXNXNXNXNXNXNXNXNXNX",
"NXNXNXNXV.3 P C S F ( G ) / / / / / / / ~ / / / / / / / / / / / / ) H [ Y A.oX}.oX+XoXXX+X4.O 9 , > > , , > > > , > > > e o 6.NXNXNXNXNXNXNXNXNXNXNXNXNXNXNXNXNX",
"NXNXNXnX*.4 P C D F ( F W / / ~ / / / / / / / / / / / / / / / ~ / ~ D H ;.Y x.oX|.oX XoX4.O 9 > > > > > > > > > > > > > < # d bXNXNXNXNXNXNXNXNXNXNXNXNXNXNXNXNX",
"NXNXNXhX} x I C C ( ( G Q ! / / / / / ~ / / / / / / / / / / / / ! ~ D A F -.T 1.oX.X@X4.O r > > > > > > > > > > > > , ; r o j NXNXNXNXNXNXNXNXNXNXNXNXNXNXNXNXNX",
"NXNXNX4X4 B D S D ( G G Q ! / / / / / / / / / / / / / / / / / / ! Q A C J c ] T A.%X5.O 0 , > > > > > > > > > > > , ; , r o 2XNXNXNXNXNXNXNXNXNXNXNXNXNXNXNXNXNX",
"NXNXNXP.3 | D S F ( G G ~ ! ~ / / / / / / / / / / / / / / / / / ! E A Z B L.I n n %.6 % r ; > > > > > > > > > , , ; , r o N.NXNXNXNXNXNXNXNXNXNXNXNXNXNXNXNXNXNX",
"NXNXNXz.3 X.C C G ( G G ~ / / / / / / / / / / / / / / / / / / / ~ Z J Z l hXeXc c c I.j o t ; > > > > > > > > > > < e o N.NXNXNXNXNXNXNXNXNXNXNXNXNXNXNXNXNXNXNX",
"NXNXNX@.4 P C C G G G E ~ / / / / / / / / / / / / / / / / / / ! ( A I c | hXNXwXO.S.NXhXu o e > > > > > > > > > , 9 o j.NXNXNXNXNXNXNXNXNXNXNXNXNXNXNXNXNXNXNXNX",
"NXNXkX} x I C C G ( G E ! / / / / / / / / / / / / ~ / / / / ! E A C o.z @.bXNXNXNXNXNXNXgXp o e > > > , > > ; < < o j.NXNXNXNXNXNXNXNXNXNXNXNXNXNXNXNXNXNXNXNXNX",
"NXNXwX4 N K C C G G G W / / / / / / / / / / / / / ~ / / ! / ( A D C o.l c.NXNXNXNXNXNXbXNXfXw o q ; > > > > , 9 X j.NXNXNXNXNXNXNXNXNXNXNXNXNXNXNXNXNXNXNXNXNXNX",
"NXNX4X3 | D S F G G G Q ! / / / / ~ / / / ~ / / ! ! ~ ~ Q G A S S D K k 4XNXNXNXNXNXNXNXNXNXfXw o e ; , > , q X h.NXNXNXNXNXNXNXNXNXNXNXNXNXNXNXNXNXNXNXNXNXNXNX",
"NXNXP.2 X.C A F E G G Q / ~ / / / / / ! ! ! / ~ ~ ^ ' E G C S S C I z @.bXNXNXNXNXNXNXNXNXNXNXgXw X y = < e . d.NXNXNXNXNXNXNXNXNXNXNXNXNXNXNXNXNXNXNXNXNXNXNXNX",
"NXNXc.3 X.C S F G G G ~ ! / ! ! ! ~ ~ ~ ^ Q W E n G G G F S C S S I 4 P.NXNXNXNXNXNXNXNXNXNXNXNXgXw . i t . d.NXNXNXNXNXNXNXNXNXNXNXNXNXNXNXNXNXNXNXNXNXNXNXNXNX",
"NXNXz.3 X.Z S G E F E ~ ~ Q Q ' E E ( ( G G G G G ( ( Z A S S C I k *.nXNXNXNXNXNXNXNXNXNXNXNXNXNXgXw     d.MXNXNXNXNXNXNXNXNXNXNXNXNXNXNXNXNXNXNXNXNXNXNXNXNXNX",
"NXNX@.k P C S G ( G G E G G G G G G G G G G ( G ( F C S S S C I x m fXNXNXNXNXNXNXNXNXNXNXNXNXNXNXNXgXd.C.MXNXNXNXNXNXNXNXNXNXNXNXNXNXNXNXNXNXNXNXNXNXNXNXNXNXNX",
"NXhX} m K C S G G ( G G G G G ( G G ( G ( G G F D S C D D C L k 4 4XNXNXNXNXNXNXNXNXNXNXNXNXNXNXNXNXNXNXNXNXNXNXNXNXNXNXNXNXNXNXNXNXNXNXNXNXNXNXNXNXNXNXNXNXNXNX",
"NXwX3 B D D Z G G ( G G G E ( ( G G G F Z D S S S S C K J B 4 } wXNXNXNXNXNXNXNXNXNXNXNXNXNXNXNXNXNXNXNXNXNXNXNXNXNXNXNXNXNXNXNXNXNXNXNXNXNXNXNXNXNXNXNXNXNXNXNX",
"NX4X3 | C S F ( G G G G F F F Z D S D D S S C D K K J M 3 4 c.kXNXNXNXNXNXNXNXNXNXNXNXNXNXNXNXNXNXNXNXNXNXNXNXNXNXNXNXNXNXNXNXNXNXNXNXNXNXNXNXNXNXNXNXNXNXNXNXNX",
"NXP.2 | Z C Z F Z D S D S S S S C C C D D K P L B k 3 5 z.5XNXNXNXNXNXNXNXNXNXNXNXNXNXNXNXNXNXNXNXNXNXNXNXNXNXNXNXNXNXNXNXNXNXNXNXNXNXNXNXNXNXNXNXNXNXNXNXNXNXNX",
"NXV.3 X.Z C S A S C C C D C D K I P X.V V x 4 3 4 ..V.wXNXNXNXNXNXNXNXNXNXNXNXNXNXNXNXNXNXNXNXNXNXNXNXNXNXNXNXNXNXNXNXNXNXNXNXNXNXNXNXNXNXNXNXNXNXNXNXNXNXNXNXNX",
"NXz.4 P Z C C D D K P X.X.| V N x 4 3 3 3 } *.V.4XkXNXNXNXNXNXNXNXNXNXNXNXNXNXNXNXNXNXNXNXNXNXNXNXNXNXNXNXNXNXNXNXNXNXNXNXNXNXNXNXNXNXNXNXNXNXNXNXNXNXNXNXNXNXNX",
"bX..x P P X.| | B m 4 4 3 2 3 4 } @.c.P.3XhXnXNXNXNXNXNXNXNXNXNXNXNXNXNXNXNXNXNXNXNXNXNXNXNXNXNXNXNXNXNXNXNXNXNXNXNXNXNXNXNXNXNXNXNXNXNXNXNXNXNXNXNXNXNXNXNXNXNX",
"hXN N x 4 3 2 3 3 } @.z.c.P.4XwXkXNXNXNXNXNXNXNXNXnXNXNXNXNXNXNXNXNXNXNXNXNXNXNXNXNXNXNXNXNXNXNXNXNXNXNXNXNXNXNXNXNXNXNXNXNXNXNXNXNXNXNXNXNXNXNXNXNXNXNXNXNXNXNX",
"3X2 s ..z.c.P.4XfXkXnXNXNXNXNXNXNXNXNXNXNXNXNXNXNXNXNXNXNXNXNXNXNXNXNXNXNXNXNXNXNXNXNXNXNXNXNXNXNXNXNXNXNXNXNXNXNXNXNXNXNXNXNXNXNXNXNXNXNXNXNXNXNXNXNXNXNXNXNXNX",
"wX3XfXbXNXNXNXNXNXNXNXNXNXNXNXNXNXNXNXNXNXNXNXNXNXNXNXNXNXNXNXNXNXNXNXNXNXNXNXNXNXNXNXNXNXNXNXNXNXNXNXNXNXNXNXNXNXNXNXNXNXNXNXNXNXNXNXNXNXNXNXNXNXNXNXNXNXNXNXNX"
};
