/* XPM */
static char *_0dd9b05540149edfede72d033e26747EvkBJbeb3etXWVHm[] = {
/* columns rows colors chars-per-pixel */
"80 80 224 2 ",
"   c #000029",
".  c #00003D",
"X  c #000A3B",
"o  c #000043",
"O  c #000549",
"+  c #00174A",
"@  c #00254E",
"#  c #002855",
"$  c #05365C",
"%  c #193D5B",
"&  c #253F59",
"*  c #003C63",
"=  c #003C6C",
"-  c #003E75",
";  c #27445F",
":  c #0C4773",
">  c #2C4F6F",
",  c #354D66",
"<  c #3A526B",
"1  c #224E73",
"2  c #3B5876",
"3  c #475666",
"4  c #515D6B",
"5  c #475F7A",
"6  c #4C637E",
"7  c #586676",
"8  c #616C77",
"9  c #6D757A",
"0  c #01568A",
"q  c #095788",
"w  c #1B5D8D",
"e  c #115E90",
"r  c #255D89",
"t  c #315E86",
"y  c #2D608B",
"u  c #3C6389",
"i  c #296696",
"p  c #366996",
"a  c #3C6D99",
"s  c #476788",
"d  c #58708B",
"f  c #466D94",
"g  c #4C7197",
"h  c #46719B",
"j  c #49729B",
"k  c #56779A",
"l  c #51779E",
"z  c #687481",
"x  c #767D84",
"c  c #697E98",
"v  c #4C76A0",
"b  c #4E78A2",
"n  c #547BA3",
"m  c #587CA3",
"M  c #46829D",
"N  c #78828A",
"B  c #7C858C",
"V  c #778796",
"C  c #7E939D",
"Z  c #5394B5",
"A  c #7997A8",
"S  c #729BB0",
"D  c #7AA4BB",
"F  c #1CAAD6",
"G  c #4DA8CD",
"H  c #59A8CB",
"J  c #4AADD5",
"K  c #56AED3",
"L  c #55B5DD",
"P  c #69A9C7",
"I  c #7BAAC2",
"U  c #70AECD",
"Y  c #7CAFC8",
"T  c #65AFD1",
"R  c #65B1D3",
"E  c #4DBAE4",
"W  c #59BBE4",
"Q  c #64BEE5",
"!  c #6BBEE3",
"~  c #71BFE4",
"^  c #6CC1E7",
"/  c #6CC3EB",
"(  c #76C3E7",
")  c #848989",
"_  c #838A8C",
"`  c #868F92",
"'  c #888F91",
"]  c #8B9395",
"[  c #8D969A",
"{  c #8C979A",
"}  c #94999A",
"|  c #939A9D",
" . c #889BA7",
".. c #959EA2",
"X. c #969DA6",
"o. c #96A0A4",
"O. c #9BA2A5",
"+. c #9CA6AA",
"@. c #9DA8AC",
"#. c #86A6B7",
"$. c #90A9B6",
"%. c #91ACBB",
"&. c #A2A5A5",
"*. c #A5A8A7",
"=. c #A1A7A8",
"-. c #A4AAAC",
";. c #AAADAE",
":. c #A5ADB2",
">. c #A9AFB1",
",. c #ACB2B4",
"<. c #A6B4BB",
"1. c #AEB6B9",
"2. c #B2B5B6",
"3. c #B7B8B7",
"4. c #B0B7B9",
"5. c #B3BABC",
"6. c #BABCBC",
"7. c #84ADC2",
"8. c #88AEC2",
"9. c #83B4CD",
"0. c #8CB6CC",
"q. c #97B7C8",
"w. c #88BCD7",
"e. c #83BDDA",
"r. c #92BCD2",
"t. c #A5BBC7",
"y. c #ABBBC3",
"u. c #B4BEC1",
"i. c #B6BFC3",
"p. c #8BC2DD",
"a. c #9DC2D7",
"s. c #93C3DC",
"d. c #9CC5DA",
"f. c #AAC1CE",
"g. c #B3C0C6",
"h. c #BAC2C4",
"j. c #B4C4CB",
"k. c #BBC6CA",
"l. c #BDC9CD",
"z. c #A4C3D4",
"x. c #AEC8D6",
"c. c #A9C8D9",
"v. c #B1C6D3",
"b. c #B5C9D4",
"n. c #BCCBD2",
"m. c #BBCED8",
"M. c #BFD0D9",
"N. c #86C7E7",
"B. c #8CC6E3",
"V. c #83CAED",
"C. c #8CCBEB",
"Z. c #98C8E1",
"A. c #91CDEC",
"S. c #87CEF0",
"D. c #8ED3F6",
"F. c #8CD4F7",
"G. c #93D4F5",
"H. c #9AD6F5",
"J. c #9ED8F7",
"K. c #96D8FA",
"L. c #9DDBFB",
"P. c #A6D1E8",
"I. c #ADD4E9",
"U. c #B0D7EB",
"Y. c #A4D9F4",
"T. c #ABDCF5",
"R. c #A0DDFB",
"E. c #B5DEF4",
"W. c #B9DFF3",
"Q. c #A3E2FF",
"!. c #BCE0F3",
"~. c #C3C5C5",
"^. c #C9C7C5",
"/. c #C2C7CA",
"(. c #C4CACD",
"). c #CCCDCD",
"_. c #C4CED2",
"`. c #CACFD1",
"'. c #CCD2D4",
"]. c #C4D4DB",
"[. c #C6D5DA",
"{. c #CBD5DA",
"}. c #CEDADE",
"|. c #D3D5D5",
" X c #D8D7D6",
".X c #D3D7D9",
"XX c #D4DBDC",
"oX c #DBDCDC",
"OX c #DDE0DF",
"+X c #C7D9E0",
"@X c #CDDDE4",
"#X c #D5DEE1",
"$X c #D9DFE1",
"%X c #CEE0E9",
"&X c #D2E1E6",
"*X c #DBE2E3",
"=X c #D3E3EB",
"-X c #DCE6EA",
";X c #DBE8ED",
":X c #C3E2F3",
">X c #CBE5F2",
",X c #CCE8F7",
"<X c #D5E9F3",
"1X c #DBEBF2",
"2X c #DCF1FB",
"3X c #E3E4E4",
"4X c #E7E8E7",
"5X c #E3EBED",
"6X c #EBECEC",
"7X c #F0EFEE",
"8X c #ECF0EF",
"9X c #F3F0EE",
"0X c #E5EEF0",
"qX c #E8EFF0",
"wX c #E7F0F2",
"eX c #EBF2F4",
"rX c #E3F1F8",
"tX c #EEF6F8",
"yX c #F3F4F3",
"uX c #F9F5F3",
"iX c #F1F9FB",
"pX c #F5F8F8",
"aX c #FDFDFD",
"sX c white",
/* pixels */
"sXsXsXsXsXsXsXsXsXsXsXsXsXsXsXsXsXsXsXsXsXsXsXsXsXsXsXsXsXsXsXsXsXsXsXsXsXsXsXsXsXsXsXsXsXsXsXsXsXsXsXsXsXsXsXsXsXsXsXsXsXsXsXsXsXsXsXsXsXsXsXsXsXsXsXsXsXsXsXsX",
"sXsXsXsXsXsXsXsXsXsXsXsXsXsXsXsXsXsXsXsXsXsXsXsXsXsXsXsXsXsXsXsXsXsXsXsXsXsXsXsXsXsXsXsXsXsXsXsXsXsXsXsXsXsXsXsXsXsXsXsXsXsXsXsXsXsXsXsXsXsXsXsXsXsXsXsXsXsXsXsX",
"sXsXsXsXsXsXsXsXsXsXsXsXsXsXsXsXsXsXsXsXsXsXsXsXsXsXsXsXsXsXsXsXsXsXsXsXsXsXsXsXsXsXsXsXsXsXsXsXsXsXsXsXsXsXsXsXsXsXsXsXsXsXsXsXsXsXsXsXsXsXsXsXsXsXsXsXsXsXsXsX",
"sXsXsXsXsXsXsXsXsXsXsXsXsXsXsXsXsXsXsXsXsXsXsXsXsXsXsXsXsXsXsXsXsXsXsXsXsXsXsXsXsXsXsXsXsXsXsXsXsXsXsXsXsXsXsXsXsXsXsXsXsXsXsXsXsXsXsXsXsXsXsXsXsXsXsXsXsXsXsXsX",
"sXsXsXsXsXsXsXsXsXsXsXsXsXsXsXsXsXsXsXsXsXsXsXsXsXsXsXsXsXsXsXsXsXsXsXsXsXsXsXsXsXsXsXsXsXsXsXsXsXsXsXsXsXsXsXsXsXsXsXsXsXsXsXsXsXsXsXsXsXsXsXsXsXsXsXsXsXsXsXsX",
"sXsXsXsXsXsXsXsXsXsXsXsXsXsXsXsXsXsXsXsXsXsXsXsXsXsXsXsXaXsXsXsXsXsXsXsXsXaXsXsXsXsXsXsXsXsXsXsXsXsXsXsXsXsXsXsXsXsXsXsXsXsXsXsXsXsXsXsXsXsXsXsXsXsXsXsXsXsXsXsX",
"sXsXsXsXsXsXsXsXsXsXsXsXsXsXsXsXsXsXsXsXsXsXsXsXsXsXsXsXsXsXsXaXsXaXsXsXsXsXsXaXsXsXsXsXsXsXsXsXsXsXsXsXsXsXsXsXsXsXsXsXsXsXsXsXsXsXsXsXsXsXsXsXsXsXsXsXsXsXsXsX",
"sXsXsXsXsXsXsXsXsXsXsXsXsXsXsXsXsXsXsXsXsXsXsXsXsXsX9X$X|.|.'.'.`.|.'.'.|.3XyXsXsXsXsXsXsXsXsXsXsXsXsXsXsXsXsXsXsXsXsXsXsXsXsXsXsXsXsXsXsXsXsXsXsXsXsXsXsXsXsXsX",
"sXsXsXsXsXsXsXsXsXsXsXsXsXsXsXsXsXsXsXsXsXsXsXpX3X`.`..X-X5XqXqX5X0X5X-X#X`.k./.$XpXsXsXsXsXsXsXsXsXsXsXsXsXsXsXsXsXsXsXsXsXsXsXsXsXsXsXsXsXsXsXsXsXsXsXsXsXsXsX",
"sXsXsXsXsXsXsXsXsXsXsXsXsXsXsXsXsXsXaXaXsXsX4X)..X-X5X5X3X5X0XwXeXeXtXtXtXtXqX-X(.u..XsXsXsXsXsXsXsXsXsXsXsXsXsXsXsXsXsXsXsXsXsXsXsXsXsXsXsXsXsXsXsXsXsXsXsXsXsX",
"sXsXsXsXsXsXsXsXsXsXsXsXsXsXsXsXsXsXaXaX7X3.+.:...c d 7 7 z x ` O.2.(.XX0XqXtXtXeX5Xl.y.-XsXsXsXpXsXaXsXsXsXsXsXsXsXsXsXsXsXsXsXsXsXsXsXsXsXsXsXsXsXsXsXsXsXsXsX",
"sXsXsXsXsXsXsXsXsXsXsXsXsXsXsXsXaXaXaX6Xx > d r 0 y p a a i w 0 : = : 4 x =.(.-XeXtXeX#X1.].sXsXsXsXsXsXaXaXaXsXpXsXsXsXsXsXsXsXsXsXsXsXsXsXsXsXsXsXsXsXsXsXsXsX",
"sXsXsXsXsXsXsXsXsXsXsXsXsXsXsXsXaXaX(.s f v i i n M n k l n n m n n v p q * % 9 >.*XeXtX5Xu._.yXyXpXsXsXsXsXsXsXsXsXsXsXsXsXsXsXsXsXsXsXsXsXsXsXsXsXsXsXsXsXsXsX",
"sXsXsXsXsXsXsXsXsXsXsXsXsXsXsXsXsXu.: h i t V  .d 0 v g h h f h h h j n m n j : + 3 1.5XtX5Xg.<.] &.;.3.~.|.*X6XyXsXsXsXsXsXsXsXsXsXsXsXsXsXsXsXsXsXsXsXsXsXsXsX",
"sXsXsXsXsXsXsXsXsXsXsXsXsXsXsXsX/.- m r X.3XaXaX7Xu.r v g j j j h j h h h j v m l 1   x #XtX5Xu.o.` | { ] ] ] } ..;.u.).4XsXsXsXsXsXsXsXsXsXsXsXsXsXsXsXsXsXsXsX",
"sXsXsXsXsXsXsXsXsXsXsXsXsXsXsX4X1 v r 5.sXsXsXaXaXsX:.0 m h j j j j j j h g h h j n f . 4 XXiX*Xy.@.} +.o.o.......] 9 ) ` oXsXsXsXsXsXsXsXsXsXsXsXsXsXsXsXsXsXsX",
"sXsXsXsXsXsXsXsXsXsXsXsXsXaXsX..w i ..sXsXaXsXsXaXsX3Xu j j j g j j j j j j j h j j b s o 8 -XtX_.y.{ ..o.o.O.O._ ] ,.h.,.,.sXaXaXsXsXsXsXsXsXsXsXsXsXsXsXsXsXsX",
"sXsXsXsXsXsXsXsXsXsXsXsXpXsX6X2 h u oXsXaXsXsXsXaXsX6Xk a k h j j g j j j j j j j j j h 5   O.eX5Xu.<.] O.o.o.B O.u.5.1.5.&.6XsXsXsXsXsXsXsXsXsXsXsXsXsXsXsXsXsX",
"sXsXsXsXsXsXsXsXsXsXsXsXsXsX~.0 a c pXsXsXsXsXsXsXsX*Xt v j h j j j h j h j j j j j h v s ; & #XtX_.y.| o.O.) &.6.1.5.1.u.O.*XsXaXsXsXsXsXsXsXsXsXsXsXsXsXsXsXsX",
"sXsXsXsXsXsXsXsXsXsXsXsXsXsX..r a c yXsXpXsXsXpXsXsX:.0 n h j j j h j j j j j j j j h j f < o 4.tX#Xg.:.| ] | u.1.5.5.2.6.&.|.sXsXsXsXsXsXsXsXsXsXsXsXsXsXsXsXsX",
"sXsXsXsXsXsXsXsXsXsXsXsXsXsXV r v t  XsXaXaXaXsXsX`.r j j j j j j j h j j j j h j j h j j 2 o ..tX5Xl.1.{ ` ,.4.1.5.5.1.6.:.~.sXsXsXsXsXsXsXsXsXsXsXsXsXsXsXsXsX",
"sXsXsXsXsXsXsXsXsXsXsXaXsX9Xd p n p c 3XsXsXsXaX~.u h j h j h j j j j j j h j j j j j j j 2 + B wX5X_.g.{ ] 1.5.5.4.5.4.5.:.6.sXsXsXsXsXsXsXsXsXsXsXsXsXsXsXsXsX",
"sXsXsXsXsXsXsXsXsXsXsXaXsX6Xs a v g p d :.(.4.V w h j h j j j j j j j j j j h j j j j j j 2 + V eX5X'.j...] 5.5.4.4.1.4.5.,.5.sXsXsXsXsXsXsXsXsXsXaXsXsX^.,.7XsX",
"sXsXsXsXsXsXsXsXsXsXsXsXsX6X6 a j j v a e e e i g b j j j j j j j j j h j j j j j j h j j < O { eX5X{.n.o.] 5.5.4.5.5.1.5.,.3.sXsXsXsXsXsXsXsXsXsXaXsX3X:.-.|.sX",
"sXsXsXsXsXsXsXsXsXsXsXaXsXyX7 p b j j j j j b j j j j j j j j j j h j j j h j j j j f j f < o -.tX0X].l.o.' 5.5.5.1.5.1.5.:.6.sXsXsXsXsXsXsXsXsXsXsXuX6.h.;.oXsX",
"sXsXsXsXsXsXsXsXsXsXsXsXsXsXB r v g j g j j g j j j j j j j j h j j h j j j j j j j h l u , o k.tX0X_.k...' 5.1.1.5.1.1.h.O.oXsXaXsXsXsXsXsXsXsXsXoX&.u.4.2.pXsX",
"sXsXsXsXsXsXsXsXaXaXaXaXsXsX..= b j j j j h j j j j j j j j j j j g j j j j j h j j j j < ; , &XeX5Xl.j.{ ' 1.5.5.5.1.h.;.;.yXsXsXsXsXsXsXsXsXsX).O.k.2.>.yXsXsX",
"sXsXsXsXaXsXsXsXsXsXsXsXsXsX;.X g j j j j j j j j j j j h j j j j j j j j j j j j j b u , O ` wX8X-Xk.g.{ ] >.4.&.5.6.;.9 { ^.sXsXsXsXsXsXaXsX|.+./.-.^.pXsXpXsX",
"sXsXsXsXsXsXyX3X3X$XqXuXsXsXoX9 # n h j j j j j j j j j j j j j j j j j h j j j h j j < , @ '.eX0XXXj.>.{ ] ;.+.D *.&.I $.,.O.uXsXsXsXsXsXsXpX;.h.;.oXsXsXsXsXsX",
"sXsXsXsX|.6X].9.0.B.#.b.sXsXuXh.8 # k h j h j j j j j j j j j j j j j j j j g h v j > < . O.eX0XwXk.k.{ +.} ) p.A.A B.N...6.=.4XsXsXsXsXsXsX3X>.5.~.sXsXsXsXsXsX",
"sXaXsXuXd.7.0.K.G.J.D.s.6XsXsXoX/.7 . d j j h j h j j j j j j j j j j j g h j v f , , o B 0XwXwXXXg.<.] ..N I L.Y.G.L.A.9.$.| oXsXaXsXsXaXsX X4.,.3XsXyXsXsXsXsX",
"sXaXsXuXc.S.H.J.Y.H.L.B.3XsXsXyX(.$XB   1 s j b j j j j j j j j j j j j v b j 2 ; % o ` 5XwX5XwXg.b.' { #.C.L.H.H.J.H.J.G.%.&.).sXsXsXsXaXsX|.4.,.6XsXsXsXsXsXsX",
"sXsXsXsXb.G.L.H.H.H.L.C.j.4XuXsX8X'.tX6.4 X @ 1 u f g l l j h g j l g f s , % @ + 3 1.0X0X5XtX/.y.' V B.L.L.H.H.H.H.H.L.9.O.4.6.sXsXsXsXpXsX|.4.,.3XsXsXsXsXsXsX",
"sXsXaXsXoXN.L.H.H.H.H.L.G.e.a.v.3X X_.iX4Xu.B 3 X . + # $ $ : : * $ @ O . + & z ,.*XtX0X0XiX(.{ h.(.a.K.J.H.H.H.H.H.H.H.A.#.;.,.sXsXsXsXsXsXoX,.1.oXsXsXsXsXsXsX",
"sXsXsXsX'.N.J.H.H.H.H.H.J.L.F.Y 4.'.O.u.tXiXwX*Xl.,.{ N 8 7 7 4 4 7 z _ ..4.'.0XtXeX5XwXeXi._ {.tXeXz.G.J.H.H.H.H.K.L.L.S O.u.-.uXsXsXsXaXsX3X>.5.).sXaXsXsXsXsX",
"sXsXsX{.e.R.L.H.H.H.H.H.H.G.q.oXiX5X4X/.,.&X8XpXwXtX8XwX;X*X*X*X*X-X5XqXeXtXtX0X-X5XeXwX1.| 5XtX5X5Xz.G.J.H.H.J.H.L.N.0.#.;.u.&.6XsXaXsXsXsXyX1.5.~.sXaXsXsXsXsX",
"aXsXsX].w.N.H.R.H.H.H.J.K.q.oXtX5X5XyXj.S ~.'.-XeXwX0X0XwXwXeXeXeXeXeX5X0X-X5XqXtXeX'.<.o.*XtX5XwX6Xv.C.L.H.H.G.Q.p...;.2.4.6.O.3XsXaXsXsXsXuX,.5.~.sXsXsXsXsXsX",
"sXsXsXsX7XXXq.V.R.H.H.L.w.{.tX5X5XtX(.H ].0X}.h._.*XwXeXeXwX0X0X0X5X5XeXeXtXtX;X(.@.:.@.:.0X0X0X0XeX|.e.L.H.H.L.C.{ 3.u.4.4.u.*.oXsXaXsXyXsXoX,.1.).sXpXsXsXsXsX",
"sXsXsXsXsXsXuXt.N.L.L.G.t.5XwX5XeXoX9.s.oXeXeX5XXXu.5.h.'.oX-X5X0X5X5X#X{.h.-.X.-.k.5Xk.<.eX0X5X5XwX5Xf.C.L.Y.D. .2.5.1.4.4.5.;.|.sXaXsXsXsX>.u.;.3XsXsXsXsXsXsX",
"sXsXsXsXsXsXsXsX_.e.L.C.n.eXwX5X8Xj.~ x.5XwX5XeXeXeX5XXX/.3.;.;.-.>.*.*.,.6.'.=X5XtXeXt.f.eX0X0XwX5XeX*Xq.C.K. .,.5.1.4.5.1.5.:.~.sXpXsXsX~.1.5.6.sXsXsXsXsXsXsX",
"sXsXsXsXsXsXaXsXsX|.p.N.{.wX5XeX*X0.C.(.iX5XwXwXXXM.].].].].].b.b.b.n.m.{.].XXeXwX5X5Xr.z.5X0X5X0X0X0XeX5X<.C ,.5.1.5.1.5.5.5.,.6.sXsXsX`.;.h.*.yXsXsXsXsXsXsXsX",
"sXsXsXsXsXsXsXsXsXsX4X%.k.eX6XeX).( d.oXwX5XtXj.9.P.I.I.I.I.I.U.U.U.I.I.I.P.e.t.5XwX5Xd.9.*XeX5X0X0X5X0X0X} { u.1.5.1.5.u.,.-.,.2.sXsX).-.k.O.3XsXsXsXsXsXsXsXsX",
"sXsXsXsXsXsXsXsXsXaXaXaX|.(.5XiXg.( x.5X5XrX'.p.2XtXeXeXwXeXeXeXeXyXyXeXyXeX2XN.u.pX*Xc.( h.eX0X5X5X8X5X*.N -.5.1.5.u.2.+.>.,.O.2.yXh.;./.&.oXsXsXsXsXsXsXsXsXsX",
"sXsXsXsXsXsXsXsXsXsXaXsXsX3Xh.oXf.V.n.eX5X8Xf.:X9X5X5X5XwX5X5XwX5X=X>X>X<X5X8X,Xr.6X5Xz.D.p.h.0XeXeX5X+.{ { =.5.5.1.+.*.6.).5.,.-.*.6.h.&.oXsXsXsXsXsXsXsXsXsXsX",
"sXsXsXsXsXsXsXsXsXsXsXsXaXsXuX^.#.C.'.eX5X8Xx.;X8X5XeX:X>X0X0X0X0X:X!.E.>X0X0X1Xd.4XwX(.N.Q.p.<.'.*X;.' =.' -.5.5.-.u.`.k.+.] 2.5.h.1.;.4XsXsXsXsXsXsXsXsXsXsXsX",
"sXsXsXsXsXsXsXsXsXsXsXsXsXaXsXaXt.Y *XtX1X8Xx.<XeX5X5XK.H.5X8X0X0X:XW.E.>X0XeX1Xd.4XqX5X%.C.Q.G.C.D B &.o.' ,.5.,.&.k.;.' *.u.*.6.:.~.yXsXsXpXsXsXsXsXsXsXsXsXsX",
"sXsXsXsXsXsXsXsXsXsXsXsXsXsXaXsXyX2.-XwX0X8Xx.>XwX0X>XG.K.>X8X0X0X1X1X1X1X0X0X1Xd.4X0X0Xj.%.p.B.D C O.o.o.' ,.5.4.-.} | h.|.4.;.-.|.sXsXsXsXsXsXsXsXsXsXsXsXsXsX",
"sXsXsXsXsXsXsXsXsXsXsXsXsXsXsXsXsXXX5XwX0X8Xx.=X8XwXY.!.!.T.0X0X0XeX;X5X6XwX5X1Xd.4XrX5Xl.}._.l.] O.o.o.o.' ,.5.5.-.4.{.h.+.O.5.&.3XsXpXsXsXsXsXsXsXsXsXsXsXsXsX",
"sXsXsXsXsXsXsXsXsXsXsXsXsXsXsXsXpX'.wX5X5XeXx.<X8X<XG.1X1XG.;X0X5XE.G.H.T.1XtX1Xd.3XeX;Xl.+X&X=XO.| o.o.| ] ,.5.,.*.l.*.| *.-.-.;.XXsXyXsXsXsXsXsXsXsXsXsXsXsXsX",
"sXsXsXsXsXsXsXsXsXsXsXsXsXsXsXsXuX'.tX5X5X8Xx.<X8XE.Y.<X<XY.!.wXE.K.:X:XY.E.8X<Xd.5XtX*Xk.@X@X@X=.| o.o.O.] 5.5.5.*.} O.5.'.5.:.;.oXsXsXsXsXsXsXsXsXsXsXsXsXsXsX",
"sXsXsXsXsXsXsXsXsXsXsXsXsXsXsXsXyX'.eX5XwX8Xx.=X0XH.>XE.!.>XH.;XJ.>X1X>X>XH.0X1Xd.5XeX#Xk.@X@X=X-.{ o.O.| { 5.5.5.>.1.(.l.;.O.u.=.oXsXaXsXsXsXsXsXsXsXsXsXsXsXsX",
"sXsXsXsXsXsXsXsXsXsXsXsXsXsXsXsXuX{.eX5X5XeXx.;X>XH.0X5XwX5XJ.>XY.:X5X>XT.Y.5X1Xa.5XeX'.n.=X+X=X:.{ O.O.| { ,.5.,.@.(.,.O.;.h.5.O.6XsXaXsXsXsXsXsXsXsXsXsXsXsXsX",
"sXsXsXsXsXsXsXsXsXsXsXsXsXsXsXsX8X'.wX5X5X8Xv.;XT.F.T.T.T.T.D.T.>XD.!.!.D.:X6X1Xa.5XeXk.].=X}.@X:.{ O.O.o.] ,.5.2.@.*.-.5.h.1.| oXsXsXsXsXsXsXsXsXsXsXsXsXsXsXsX",
"sXsXsXsXsXsXsXsXsXsXsXsXsXsXsXsXuX'.eX0X0XtXf.:X1X!.!.!.E.!.!.>X5X>XY.Y.>X5XeX<Xq.eX-Xh.+X@X+X<Xy.' O.o.o.] 5.5.4.2.4.u.6.;.O.3XsXsXsXsXsXsXsXsXsXsXsXsXsXsXsXsX",
"sXsXsXsXsXsXsXsXsXsXsXsXsXsXsXsXpX'.0X0X5XeX#Xq.rXiXyXwX9XeXeXeXwXuXtXeXeXeXrXs._.tX{.j.=X=X#X_. .} O.o.o.] ,.5.1.u.6.1.O.2.8XsXsXsXsXsXsXsXsXsXsXsXsXsXsXsXsXsX",
"sXsXsXsXsXsXsXsXsXsXsXsXsXsXsXsXsX|.wXeXwX0XeX|.t.m.].].].].{.].].].].].{.].q._.tX6Xh.'._.t.I G M ' O.o.O.' ,.u.1.*.O.;. XaXaXaXsXsXsXsXsXsXsXsXsXsXsXsXsXsXsXsX",
"sXsXsXsXsXsXsXsXsXsXsXsXsXsXsXsXsX(._.&X*X3X5X6X3X*X#X*X#XOX&X*X*XOX&X*XXXXX#X3XXXu.S Y H J J D n.+._ o.o._ } *.;.).6XaXsXsXsXsXsXsXsXsXsXsXsXsXsXsXsXsXsXsXsXsX",
"sXsXsXsXsXsXsXsXsXsXsXsXsXsXsXsXaXg.R B.p.s.d.z.x.m.M.[.].].].]._.].].M.b.c.a.p.p.L E L T 7.u.#X=X@XO._ +.` Z Z '.sXsXsXsXsXsXsXsXsXsXsXsXsXsXsXsXsXsXsXsXsXsXsX",
"sXsXsXsXsXsXsXsXsXsXsXsXsXsXsXsXaX6.z.a.s.B.N.V.( S.( C.V.V.V.S.V.S.V.( V.G.D.G.( U %.t.l.#X=X@X+X@X=Xn.#.R / / H (.sXsXsXsXsXsXsXsXsXsXsXsXsXsXsXsXsXsXsXsXsXsX",
"sXsXsXsXsXsXsXsXsXsXsXsXsXsXsXsXyX).8X*X|.'._.k.v.z.a.d.d.d.Z.d.Z.s.s.c.c.#.%.t.g.n.}.=X=X@X+X@X@X@X@X=Xq.L ( ! / G .XsXaXsXsXsXsXsXsXsXsXsXsXsXsXsXsXsXsXsXsXsX",
"sXsXsXsXsXsXsXsXsXsXsXsXsXsXaXsX3X_.eXwXeXeXeX8X8X5X-XOXOXXX.X.XXX*X*X|.6.5.}.=X=X=X@X+X@X@X@X@X@X@X@X&Xj.T Q ! / / I 3XsXaXsXsXsXsXsXsXsXsXsXsXsXsXsXsXsXsXsXsX",
"sXsXsXsXsXsXsXsXsXsXsXsXsXsXsXsX|.-XtX0X0X5X0XqX0X0XeXeXeXtXiXiX8X*X(.l.[.=X%X@X@X@X@X@X@X@X@X@X@X@X+X=Xn.T Q ! ! / F q.aXsXaXsXsXsXsXsXsXsXsXsXsXsXsXsXsXsXsXsX",
"sXsXsXsXsXsXsXsXsXsXsXsXsXsXsXaX,.`.*X-XwXwXwXeXeX8XwX5X5X#X{.k.g.k.].}.%X@X@X@X@X@X@X@X@X@X@X@X@X@X@X=Xn.T Q ( Q H q.n.aXsXsXsXsXsXsXsXsXsXsXsXsXsXsXsXsXsXsXsX",
"sXsXsXsXsXsXsXsXsXsXsXsXsXaXsX6Xu.].k.h.k.l.(.(.(.(.k.k.j.k.l.].@X%X%X@X@X@X@X@X@X@X@X@X@X@X@X#X@X@X+X=Xg.K ( W P 3XaXsXsXsXsXsXsXsXsXsXsXsXsXsXsXsXsXsXsXsXsXsX",
"sXsXsXsXsXsXsXsXsXsXsXsXsXsXsX'.].=X%X@X@X+X}.+X].+X+X@X#X=X=X@X&X&X@X%X&X@X&X@X%X=X@X@X@X@X@X@X@X@X@X#X7.Q W I 3XsXsXsXsXsXsXsXsXsXsXsXsXsXsXsXsXsXsXsXsXsXsXsX",
"sXsXsXsXsXsXsXsXsXsXsXsXsXsXpXk.@X+X@X@X@X@X@X@X@X@X@X@X@X@X@X@X+X+X+X].+X].].].].+X+X=X=X@X@X@X#X@X=Xj.T E 7.6XsXsXsXsXsXsXsXsXsXsXsXsXsXsXsXsXsXsXsXsXsXsXsXsX",
"sXsXsXsXsXsXsXsXsXsXsXsXpXsX|.<.=X+X@X@X@X@X@X@X@X=X].]._.n.n.n.(.)._.'.{..X.X'.'.(.(.n.].+X+X@X@X@Xy.Z G t.uXsXaXsXsXsXsXsXsXsXsXsXsXsXsXsXsXsXsXsXsXsXsXsXsXsX",
"sXsXsXsXsXsXsXsXsXsXsXsXsXsXq.Z l.;X@X+X@X@X@X@X=Xn./.XX$X4X7XyXpXaXsXsXsXsXsXsXsXaXyX3X`.(._._.n.<.$.f.oXaXsXsXsXsXsXsXsXsXsXsXsXsXsXsXsXsXsXsXsXsXsXsXsXsXsXsX",
"sXsXsXsXsXsXsXsXsXsXsXpXsX4XR W P h.&X-X@X@X@X=Xu.|.aXsXsXsXsXsXsXsXsXsXaXsXaXsXsXsXsXsXsXaXuX6XyX6XpXsXsXsXsXsXsXsXsXsXsXsXsXsXsXsXsXsXsXsXsXsXsXsXsXsXsXsXsXsX",
"sXsXsXsXsXsXsXsXsXsXsXsXsXy.E ^ Q H 8.k.{.&X%Xu.oXsXaXsXsXaXaXaXaXsXsXaXsXsXsXsXsXsXaXaXsXaXsXsXsXsXsXsXsXsXsXsXsXsXsXsXsXsXsXsXsXsXsXsXsXsXsXsXsXsXsXsXsXsXsXsX",
"sXsXsXsXsXsXsXsXsXsXaXsX4XP Q ~ ! ^ L H Y #.@.4XsXsXaXsXsXsXsXsXsXsXsXsXsXsXsXsXsXsXsXsXaXsXaXaXsXaXpXsXsXsXsXsXsXsXsXsXsXsXsXsXsXsXsXsXsXsXsXsXsXsXsXsXsXsXsXsX",
"sXsXsXsXsXsXsXsXsXaXsX7Xq.W ~ ! ! ! ^ ( E P 4XsXsXsXsXsXsXsXsXsXsXsXsXsXsXsXsXsXsXsXsXsXsXsXsXsXsXsXsXsXsXsXsXsXsXsXsXsXsXsXsXsXsXsXsXsXsXsXsXsXsXsXsXsXsXsXsXsX",
"sXsXsXsXsXsXsXsXsXsXsX'.F ^ ~ ! ! ! ~ W I 6XsXsXsXsXsXsXsXsXsXsXsXsXsXsXsXsXsXsXsXsXsXsXsXsXsXsXsXsXsXsXsXsXsXsXsXsXsXsXsXsXsXsXsXsXsXsXsXsXsXsXsXsXsXsXsXsXsXsX",
"sXsXsXsXsXsXsXsXsXsXaXaXj.G W ~ ~ ~ E I 6XsXaXsXsXsXsXsXsXsXsXsXsXsXsXsXsXsXsXsXsXsXsXsXsXsXsXsXsXsXsXsXsXsXsXsXsXsXsXsXsXsXsXsXsXsXsXsXsXsXsXsXsXsXsXsXsXsXsXsX",
"sXsXsXsXsXsXsXsXsXsXaXsXsX'.Y J L J 7.6XaXaXsXsXsXsXsXsXsXsXsXsXsXsXsXsXsXsXsXsXsXsXsXsXsXsXsXsXsXsXsXsXsXsXsXsXsXsXsXsXsXsXsXsXsXsXsXsXsXsXsXsXsXsXsXsXsXsXsXsX",
"sXsXsXsXsXsXsXsXsXsXsXaXsXsX7X'.b._.uXsXaXsXsXsXsXsXsXsXsXsXsXsXsXsXsXsXsXsXsXsXsXsXsXsXsXsXsXsXsXsXsXsXsXsXsXsXsXsXsXsXsXsXsXsXsXsXsXsXsXsXsXsXsXsXsXsXsXsXsXsX",
"sXsXsXsXsXsXsXsXsXsXsXsXsXaXsXsXsXsXsXsXsXsXsXsXsXsXsXsXsXsXsXsXsXsXsXsXsXsXsXsXsXsXsXsXsXsXsXsXsXsXsXsXsXsXsXsXsXsXsXsXsXsXsXsXsXsXsXsXsXsXsXsXsXsXsXsXsXsXsXsX",
"sXsXsXsXsXsXsXsXsXsXsXsXsXsXaXsXsXsXaXsXsXsXsXsXsXsXsXsXsXsXsXsXsXsXsXsXsXsXsXsXsXsXsXsXsXsXsXsXsXsXsXsXsXsXsXsXsXsXsXsXsXsXsXsXsXsXsXsXsXsXsXsXsXsXsXsXsXsXsXsX",
"sXsXsXsXsXsXsXsXsXsXsXsXsXsXsXsXsXsXsXsXsXsXsXsXsXsXsXsXsXsXsXsXsXsXsXsXsXsXsXsXsXsXsXsXsXsXsXsXsXsXsXsXsXsXsXsXsXsXsXsXsXsXsXsXsXsXsXsXsXsXsXsXsXsXsXsXsXsXsXsX",
"sXsXsXsXsXsXsXsXsXsXsXsXsXsXsXsXsXsXsXsXsXsXsXsXsXsXsXsXsXsXsXsXsXsXsXsXsXsXsXsXsXsXsXsXsXsXsXsXsXsXsXsXsXsXsXsXsXsXsXsXsXsXsXsXsXsXsXsXsXsXsXsXsXsXsXsXsXsXsXsX"
};
