/* XPM */
static char *dc7c52c65e1746b7d1966a2b81734addZuvgbw9T9Wf7ygN7[] = {
/* columns rows colors chars-per-pixel */
"80 80 221 2 ",
"   c #000029",
".  c #00003D",
"X  c #000A3B",
"o  c #000043",
"O  c #000549",
"+  c #00174A",
"@  c #00254E",
"#  c #002855",
"$  c #05365C",
"%  c #193D5B",
"&  c #003C63",
"*  c #003C6C",
"=  c #003E75",
"-  c #27445F",
";  c #0C4773",
":  c #2C4F6F",
">  c #354D66",
",  c #3A526B",
"<  c #224E73",
"1  c #3B5876",
"2  c #475666",
"3  c #515D6B",
"4  c #475F7A",
"5  c #4C637E",
"6  c #586676",
"7  c #616C77",
"8  c #6D757A",
"9  c #01568A",
"0  c #095788",
"q  c #1B5D8D",
"w  c #115E90",
"e  c #255D89",
"r  c #315E86",
"t  c #2D608B",
"y  c #3C6389",
"u  c #296696",
"i  c #366996",
"p  c #3C6D99",
"a  c #476788",
"s  c #58708B",
"d  c #466D94",
"f  c #4C7197",
"g  c #46719B",
"h  c #49729B",
"j  c #51779E",
"k  c #687481",
"l  c #767D84",
"z  c #697E98",
"x  c #4C76A0",
"c  c #4E78A2",
"v  c #547BA3",
"b  c #587CA3",
"n  c #46829D",
"m  c #78828A",
"M  c #7C858C",
"N  c #778796",
"B  c #79929E",
"V  c #5394B5",
"C  c #7B9AAA",
"Z  c #729BB0",
"A  c #6EA4BF",
"S  c #7AA4BB",
"D  c #1CAAD6",
"F  c #4DA8CD",
"G  c #59A8CB",
"H  c #4AADD5",
"J  c #56AED3",
"K  c #55B5DD",
"L  c #69A9C7",
"P  c #7BAAC2",
"I  c #70AECD",
"U  c #7CAFC8",
"Y  c #64AFD1",
"T  c #65B1D3",
"R  c #4DBAE4",
"E  c #59BBE4",
"W  c #64BEE5",
"Q  c #6BBEE3",
"!  c #71BFE4",
"~  c #6CC1E7",
"^  c #6CC3EB",
"/  c #76C3E7",
"(  c #838A8C",
")  c #868F92",
"_  c #888F91",
"`  c #8B9395",
"'  c #8D969A",
"]  c #8C979A",
"[  c #93999A",
"{  c #939A9D",
"}  c #889BA7",
"|  c #959EA2",
" . c #969DA6",
".. c #96A0A4",
"X. c #9BA2A5",
"o. c #9CA6AA",
"O. c #9DA8AC",
"+. c #86A6B7",
"@. c #90A9B6",
"#. c #91ACBB",
"$. c #A2A5A5",
"%. c #A5A8A7",
"&. c #A1A7A9",
"*. c #A4AAAC",
"=. c #AAADAE",
"-. c #A5ADB2",
";. c #A9AFB1",
":. c #ACB2B4",
">. c #A6B4BB",
",. c #AEB6B9",
"<. c #B2B5B6",
"1. c #B7B8B7",
"2. c #B0B7B9",
"3. c #B3BABC",
"4. c #BABCBC",
"5. c #84ADC2",
"6. c #88AEC2",
"7. c #83B4CD",
"8. c #8CB6CC",
"9. c #97B7C8",
"0. c #88BCD7",
"q. c #83BDDA",
"w. c #92BCD2",
"e. c #A5BBC7",
"r. c #ABBBC3",
"t. c #B4BEC1",
"y. c #B6BFC3",
"u. c #8BC2DD",
"i. c #9DC2D7",
"p. c #93C3DC",
"a. c #9CC5DA",
"s. c #AAC1CE",
"d. c #B3C0C6",
"f. c #BAC2C4",
"g. c #B4C4CB",
"h. c #BBC6CA",
"j. c #BDC9CD",
"k. c #A4C3D4",
"l. c #AEC8D6",
"z. c #A9C8D9",
"x. c #B1C6D3",
"c. c #B5C9D4",
"v. c #BCCBD2",
"b. c #BBCED8",
"n. c #BFD0D9",
"m. c #86C7E7",
"M. c #8CC6E3",
"N. c #83CAED",
"B. c #8CCBEB",
"V. c #91CDEC",
"C. c #95D1EF",
"Z. c #87CEF0",
"A. c #8ED3F6",
"S. c #8CD4F7",
"D. c #93D4F5",
"F. c #9AD6F5",
"G. c #9ED8F6",
"H. c #96D8FA",
"J. c #9DDBFB",
"K. c #A6D1E8",
"L. c #ADD4E9",
"P. c #B0D7EB",
"I. c #A4D9F4",
"U. c #ABDCF5",
"Y. c #A0DDFB",
"T. c #B5DEF4",
"R. c #B9DFF3",
"E. c #A3E2FF",
"W. c #BCE0F3",
"Q. c #C3C5C5",
"!. c #C9C7C5",
"~. c #C2C7CA",
"^. c #C4CACD",
"/. c #CCCDCD",
"(. c #C4CED2",
"). c #CACFD1",
"_. c #CCD2D4",
"`. c #C4D4DB",
"'. c #C6D5DA",
"]. c #CBD5DA",
"[. c #CEDADE",
"{. c #D3D5D5",
"}. c #D3D7D9",
"|. c #D4DBDC",
" X c #DBDCDC",
".X c #DCE0DF",
"XX c #C7D9E0",
"oX c #CDDDE4",
"OX c #D5DEE1",
"+X c #D9DFE1",
"@X c #CEE0E9",
"#X c #D2E1E6",
"$X c #DBE2E3",
"%X c #D3E3EB",
"&X c #DCE6EA",
"*X c #DBE8ED",
"=X c #C3E2F3",
"-X c #CBE5F2",
";X c #CCE8F7",
":X c #D5E9F3",
">X c #DBEBF2",
",X c #DCF1FB",
"<X c #E3E4E4",
"1X c #E6E8E7",
"2X c #E3EBED",
"3X c #EBEDEC",
"4X c #F0EFEE",
"5X c #EDF0EF",
"6X c #F3F0EE",
"7X c #E5EEF0",
"8X c #E9EFF0",
"9X c #E6F0F3",
"0X c #EBF2F4",
"qX c #EEF6F8",
"wX c #F3F3F3",
"eX c #F9F5F3",
"rX c #F1F9FB",
"tX c #F5F8F8",
"yX c #FDFDFD",
"uX c #FDFEFE",
"iX c white",
/* pixels */
"iXiXiXiXiXiXiXiXiXiXiXiXiXiXiXiXiXiXiXiXiXiXiXiXiXiXiXiXiXiXiXiXiXiXiXiXiXiXiXiXiXiXiXiXiXiXiXiXiXiXiXiXiXiXiXiXiXiXiXiXiXiXiXiXiXiXiXiXiXiXiXiXiXiXiXiXiXiXiXiX",
"iXiXiXiXiXiXiXiXiXiXiXiXiXiXiXiXiXiXiXiXiXiXiXiXiXiXiXiXiXiXiXiXiXiXiXiXiXiXiXiXiXiXiXiXiXiXiXiXiXiXiXiXiXiXiXiXiXiXiXiXiXiXiXiXiXiXiXiXiXiXiXiXiXiXiXiXiXiXiXiX",
"iXiXiXiXiXiXiXiXiXiXiXiXiXiXiXiXiXiXiXiXiXiXiXiXiXiXiXiXiXiXiXiXiXiXiXiXiXiXiXiXiXiXiXiXiXiXiXiXiXiXiXiXiXiXiXiXiXiXiXiXiXiXiXiXiXiXiXiXiXiXiXiXiXiXiXiXiXiXiXiX",
"iXiXiXiXiXiXiXiXiXiXiXiXiXiXiXiXiXiXiXiXiXiXiXiXiXiXiXiXiXiXiXiXiXiXiXiXiXiXiXiXiXiXiXiXiXiXiXiXiXiXiXiXiXiXiXiXiXiXiXiXiXiXiXiXiXiXiXiXiXiXiXiXiXiXiXiXiXiXiXiX",
"iXiXiXiXiXiXiXiXiXiXiXiXiXiXiXiXiXiXiXiXiXiXiXiXiXiXiXiXiXiXiXiXiXiXiXiXiXiXiXiXiXiXiXiXiXiXiXiXiXiXiXiXiXiXiXiXiXiXiXiXiXiXiXiXiXiXiXiXiXiXiXiXiXiXiXiXiXiXiXiX",
"iXiXiXiXiXiXiXiXiXiXiXiXiXiXiXiXiXiXiXiXiXiXiXiXiXiXiXiXiXiXiXiXiXiXiXiXiXiXiXiXiXiXiXiXiXiXiXiXiXiXiXyXyXiXiXiXiXiXiXiXiXiXiXiXiXiXiXiXiXiXiXiXiXiXiXiXiXiXiXiX",
"iXiXiXiXiXiXiXiXiXiXiXiXiXiXiXiXiXiXiXiXiXiXiXiXiXiXiXiXiXiXiXiXiXiXiXiXiXiXiXiXiXiXiXiXiXiXiXiXyXiXiXiXiXiXiXiXiXiXiXiXiXiXiXiXiXiXiXiXiXiXiXiXiXiXiXiXiXiXiXiX",
"iXiXiXiXiXiXiXiXiXiXiXiXiXiXiXiXiXiXiXiXiXiXiXiXiXiXiXiXiXiXiXiXiXiXiXiXiXiXiXiXiXwX<X{._._.{._._._._.{. XwXiXiXiXiXyXiXiXiXiXiXiXiXiXiXiXiXiXiXiXiXiXiXiXiXiXiX",
"iXiXiXiXiXiXiXiXiXiXiXiXiXiXiXiXiXiXiXiXiXiXiXiXiXiXiXiXiXiXiXiXiXiXiXiXiXiXtXOXj.h._.OX&X2X2X2X8X7X2X&XOX_.).1XtXiXiXiXiXiXiXiXiXiXiXiXiXiXiXiXiXiXiXiXiXiXiXiX",
"iXiXiXiXiXiXiXiXiXiXiXiXiXiXiXiXiXiXiXiXiXiXiXiXiXiXiXiXiXiXiXiXiXyXiXiXyX}.t.^.$X0X0X0XqXqXqX0X8X2X2X&X1X2X<X}./.<XiXiXyXiXiXiXiXiXiXiXiXiXiXiXiXiXiXiXiXiXiXiX",
"iXiXiXiXiXiXiXiXiXiXiXiXiXiXiXiXiXiXiXiXiXiXiXiXiXiXiXiXiXyXyXyXiXiXiX&Xy.j.2X0X0XqX0X2X|.^.3...) m k 6 6 s z | -.o.1.wXiXyXiXiXiXiXiXiXiXiXiXiXiXiXiXiXiXiXiXiX",
"iXiXiXiXiXiXiXiXiXiXiXiXiXiXiXiXiXiXiXiXiXiXyXyXyXyXyXyXiXiXiXiXiXiX].:.OX0XqX0X&X^.$.m 2 ; = ; 9 q i i i i e 9 e s : l 1XiXyXiXiXiXiXiXiXiXiXiXiXiXiXiXiXiXiXiX",
"iXiXiXiXiXiXiXiXiXiXiXiXiXiXiXiXiXiXiXyXyXyXiXiXiXiXiXiXiXyXtXwX0X(.3.2XqX0X$X:.8 % * 0 i h v b b v j j x h b b u u x d a ~.iXiXyXiXiXiXiXiXiXiXiXiXiXiXiXiXiXiX",
"iXiXiXiXiXiXiXiXiXiXiXiXiXiXiXiXiXiXiXiXiXiXiXtX3X.X{.Q.3.:.$.` >.h.7XqX2X,.2 + ; g v v v f h d g g g g h h 9 s } B r u h ; ,.iXiXiXiXiXiXiXiXiXiXiXiXiXiXiXiXiX",
"iXiXiXiXiXiXiXiXiXiXiXiXiXiXiXiXiXiXiX3X/.4.=.| [ ` ` ` ` ] ) ..3.7XqXOXm   < x b c h g h g h h h h f f x e ,.wXiXtX<X| t v = Q.iXyXiXiXiXiXiXiXiXiXiXiXiXiXiXiX",
"iXiXiXiXiXiXiXiXiXiXiXiXiXiXiXiXyXiX X` ( 8 ) ..| | ....o.[ O.t.$XqX[.3 . a v x g h h h h h h h h h g b 9 :.iXyXiXyXiXiXy.e c < 1XyXiXiXiXiXiXiXiXiXiXiXiXiXiXiX",
"iXiXiXiXiXiXiXiXiXiXiXiXiXiXiXiXiXyX:.:.f.:.` ( X.X.......[ >.(.tX<X6 o a x d g h h h h h h h h h h j g y 1XiXiXyXyXiXiXiX| u q | iXyXiXiXiXiXiXiXiXiXiXiXiXiXiX",
"iXiXiXiXiXiXiXiXiXiXiXiXiXiXiXyXiX3Xo.3.2.3.4.X.M ....X.` -.d.2X0Xo.  4 h h h h g h h h h g h h g g v i s 4XiXyXiXiXiXtXiX Xy g 4 3XyXyXiXiXiXiXiXiXiXiXiXiXiXiX",
"iXiXiXiXiXiXiXiXiXiXiXiXiXiXiXiXiX XX.4.2.2.,.y.%.M ....{ r._.0XOX> - a x h h h h h g h h h h h f g f x e  XiXyXiXiXiXyXiXwXz p 9 f.iXyXiXiXiXiXiXiXiXiXiXiXiXiX",
"iXiXiXiXiXiXiXiXiXiXiXiXiXiXiXyXiX{.$.y.2.2.2.,.3...` [ -.d.#XtX:.. , d h g g h h h h h h h h h h g g b 9 -.iXiXyXyXiXyXiXtXz p e | iXiXiXiXiXiXiXiXiXiXiXiXiXiX",
"iXiXiXiXiXiXiXiXiXiXiXiXiXiXiXiXiX~.*.4.2.2.2.2.3.:.) [ r.j.2X0X| O 1 g h h h h h h g h h h h g h h h h x e {.iXyXyXyXiXiX}.r x i m iXiXyXiXiXiXiXiXiXiXiXiXiXiX",
"iXiXiXiXiXiXiXiXiXiXiXiXiXiXiXiXiX4.-.3.2.2.2.3.3.,._ ] y.(.2X0XM + 1 h h h h h h h h h h h h h h h h g h g y Q.yXyXiXiX1XN i x i s wXiXyXiXiXiXiXiXiXiXiXiXiXiX",
"iX3X:.~.yXiXiXiXiXiXiXiXiXiXiXiXiX1.,.2.2.2.2.3.3.3.) { g._.7X0XM + , h h h h h h h h h g h h h h h h h g j g q N t.^.-.s i h h i 5 3XiXyXiXiXiXiXiXiXiXiXiXiXiX",
"iX{.*.=.<XiXiXiXiXiXiXiXiXiXiXiXiX2.,.3.2.2.3.2.3.3.` ..v.'.7X0X] O 1 h f g g h h g h h h h h h h h h h h g f h u w w w p h h h p 5 3XiXyXiXiXiXiXiXiXiXiXiXiXiX",
"iX X;.f.1.wXiXiXiXiXiXiXiXiXiXiXiX1.-.3.2.2.2.2.2.4._ ..v.].2XqX*.O , d g g g h g h h h h h h h h h g h h h h h f x f x x g f x i 6 wXiXiXiXiXiXiXiXiXiXiXiXiXiX",
"iXtX:.2.4.%. XiXiXiXiXiXiXiXiXiXiX Xo.f.,.2.2.2.2.3._ | g._.2XqXy.O > r x f h h h h h h h h g h h h h h h h h h h f h h g h h x e M iXiXiXiXiXiXiXiXiXiXiXiXiXiX",
"iXiX6X:.,.h.$./.iXiXiXiXiXiXiXiXiXiX=.=.y.,.2.1.2.,._ ] g.j.2X0X+X> % 1 x g g h h h h g g h h h h h h h h g h h h h h h h h f x * [ iXyXyXyXyXyXyXiXiXiXiXiXiXiX",
"iXyXyXiXQ.*.~.o.{.iXiXiXiXiXiXiXiX!.[ 8 =.y.3.$.3.:.` ] y.h.&X9X8X] O 2 y x f h h h h h h h h h g h h h h h h h h h h h g f x f X =.iXyXiXiXiXiXiXiXyXyXiXiXiXiX",
"iXiXyXiXiX{.=.f.=.tXiXiXiXiXyXiXwXX.:.+.S %.$.S O.=.` ] -.g.|.9X0X_.@ > > g x d h h h h h h h h h h h h h h h h h h h h f g v # 8  XiXiXtX4X X1X<XwXiXiXiXiXiXiX",
"iXiXiXyXiXiXQ.2.:.<XiXyXiXiXiXiX<X*.4.{ M.M.C C.u.m [ o.] h.h.9X7X8Xo.o 2 : g x g h h h h g h h h h h h h h h h h h g g g v # 7 y.tXiXiXc.+.M.9.U `.3X}.iXiXyXiX",
"iXiXiXiXiXiX<X:.<.{.iXiXiXiXiXiX X{ #.7.V.J.F.F.G.P m X.` r.d.OX8X7X2XM O > > d c h h h f g h h h h h g h h h h g h x x s o 6 ~.}.iXiX3Xp.S.J.D.H.9.5.a.eXiXyXiX",
"iXiXiXiXyXiX1X:.2.{.iXiXiXiXyXiX/.$.@.D.Y.F.G.F.G.G.V.S ) ) h.d.7X7X8X2X) O % - 1 f x h h h h h h g h h h h h x c h y -   M +X^.iXiXiX<XM.J.G.H.G.V.S.z.tXiXyXiX",
"iXiXiXiXiXiX<X:.:.{.iXyXiXiXiXiX4.:.%.U J.F.F.F.F.F.G.J.B.m _ r.^.qX2X7X0X2.2 + @ % : a a f h h j j j j h h d 1 < # . 3 4.qX(.4XiXwX1Xg.A.G.F.F.F.J.A.b.iXiXiXiX",
"iXiXiXiXyXiX X,.:. XiXyXiXiXiXiX:.=.+.V.G.F.F.F.F.F.F.G.H.k.^.f.} ^.tX7X2XqX+X-.k - + . O @ $ $ ; $ & $ @ + . @ 2 ( 3.2XrX(.{.<Xx.i.u.B.G.F.G.F.F.H.m.}.iXyXiXiX",
"iXiXiXiXyXiX/.2.:.1XiXyXiXiXiXwX%.t.X.Z H.J.F.F.F.F.F.G.S.k.5XqX].( y.0X7X2X0XrX2X].2.| M k 6 6 6 3 6 7 m ] -.j.|.8XtXqX3.o.{.3.U D.Y.F.F.F.F.F.G.H.M._.iXiXiXiX",
"iXiXiXiXyXiX/.2.:.tXiXyXiXiXiX3X%.t.=.} u.M.J.F.F.F.F.J.D.k.&X7XwX2X] 2.7X0X2X2X7XqXqX0X5X2X&X$X$X$X$X2X9X0X0X0XqXqX$X:.^.2X2XtX X9.D.J.F.F.F.G.F.J.Y.q._.iXiXiX",
"iXiXiXiXiXiXQ.2.:.wXiXiXiXyXiX<X%.3.3.,.=.{ u.J.F.F.F.J.B.g.5X7X2XqX*X| >.].8XqX0X2X&X2X2X0X0XqX0X0X0X7X7X7X0X0X$X_.h.C x.0X3X2XqX X9.H.F.F.F.F.Y.F.M.q.].iXiXiX",
"iXiXiXiXyXiX/.,.;. XiXyXiXyXiX X$.3.,.3.y.1.} B.E.D.F.J.u.].9X7X2X7X7X-.O.-.O.^.&XqXqXqX0X7X2X2X2X7X5X0XqX7X.Xj.f.].5X`.G ~.0X7X2XqX_.q.J.F.F.J.Z.9.}.3XiXiXiXiX",
"iXiXiXiXiXiX1X=.f.=.yXyXyXyXiX{.*.3.2.2.2.3.2.} C.J.Y.Z.r.7X9X2X7X7XqX>.h.7Xh.*.| *.f.].#X2X2X2X2X*X+X_.f.3.y.}.2X9XqX Xu.5.+X0X2X0X7Xe.A.F.J.m.s.eXiXiXiXiXiXiX",
"iXiXiXiXiXiXiX4.2.:.Q.iXiXiXiXQ.=.3.2.2.2.,.y.:.C F.C.#.&X0X2X5X7X7X8Xe.e.qX0X7XOX_.f.:.%.$.;.%.-.=.2.~.}.2XqXqX0X2X0X2Xl./ g.5X7X7X0Xv.B.J.q.^.iXiXiXiXiXiXiXiX",
"iXiXiXiXiXiXiXwX%.f.*.{.iXiXiX4.,.3.3.3.,.3.,.3.:.B >.2X5X7X7X7X2X7X8Xe.w.2X2X2X0X|.'.'.n.v.c.c.c.n.'.'.`.`.n.|.0X7X2X0X(.Z.8.$X7X2X0X'.m.0.{.iXiXiXiXiXiXiXiXiX",
"iXiXiXiXiXiXyXiX<X$.~.*./.iXiX<.:.*.:.3.3.,.,.3.3.[ [ 7X9X2X7X7X2X8X*X7.a.&XqX2Xe.q.K.L.L.P.L.P.P.L.L.L.L.L.K.7.g.0X2X0X|.a./ _.0X0XqXh.@.2XiXiXiXiXiXiXiXiXiXiX",
"iXiXiXiXiXiXiXiXiX}.o.~.*.Q.3X<.o.:.=.%.,.3.3.2.3.O.m &.2X9X2X*XqX8Xy./ z.&XqXy.M.,X0XqXwX0X0XqXqX0X0X0X0X0XqX,Xq._.0X9X2Xk.m.d.tX&XQ.{.yXiXiXiXiXiXiXiXiXiXiXiX",
"iXiXiXiXiXiXiXiXiXiX X$.f.4.%.*.:.3.(.t.*.%.,.3.3.%.] [ %.2XqXqX8Xh.0.H.e.7X3Xw.;X3X7X%X-X-X%X2X2X2X7X7X2X2X2X5X=Xs.0X2X5Xv.N.s.$XQ.<XiXiXiXiXiXiXiXiXiXiXiXiXiX",
"iXiXiXiXiXiXiXiXyXiXiX<X=.,.f.3.2.` %.h.(.3.%.3.3.%.` O._ =..X{.e.7.E.M.j.0X2Xa.>X0X7X-XR.W.=X7X9X2X0X=X=X5X2X2X%Xz.0X7XqX_.V.+.!.wXiXyXyXiXiXiXiXiXiXiXiXiXiXiX",
"iXiXiXiXiXiXiXiXiXiXyXiXtX!.=.3.%.3.$.` *.j.%.,.y.=.) | X.M S M.D.Y.m.9.<X0X*Xz.:X5X7X-XW.T.=X2X2X0X2XG.G.>X7X0X%Xl.5X2X0X$XI >.yXiXyXiXiXiXiXiXiXiXiXiXiXiXiXiX",
"iXiXiXiXiXiXiXiXiXiXyXyXtXyX{.*.*.,._.f.{ [ *.,.3.:._ ..X...B 7.M.w.#.y.7X9X2Xa.>X0X7X>X:X&X>X0X7X5X-XG.F.-X2X0X:Xl.5X2X5X2X2.tXiXyXiXiXiXiXiXiXiXiXiXiXiXiXiXiX",
"iXiXiXiXiXiXiXiXiXiXiXyXyXiX<X*.3.X.%.h._.,.*.3.1.:._ ....X...` v.`.XXj.2X8X<Xa.>X7X7X3X>X>X0X2X7X7XI.W.R.U.9X0X%Xl.0X2X7X2X}.iXyXiXiXiXiXiXiXiXiXiXiXiXiXiXiXiX",
"iXiXiXiXiXiXiXiXiXiXiXiXyXiX X*.*.%.*.[ &.^.&.,.3.,.` | X...{ X.@X@X'.h.*X0X2Xa.>X5X>XW.D.H.W.>X5X:XA.>X>XD.:X5X%Xl.0X7X7X9X_.tXiXiXiXiXiXiXiXiXiXiXiXiXiXiXiXiX",
"iXiXiXiXiXiXiXiXiXiXiXiXyXiX X*.*.2._.3.o.] &.2.3.,.` | ....{ ..@X@X@Xh.$X0X<Xi.>X3XE.I.-XW.D.W.5XW.I.:X:XG.W.5X%Xl.5X7X2X0X_.tXiXiXiXiXiXiXiXiXiXiXiXiXiXiXiXiX",
"iXiXiXiXiXiXiXiXiXiXiXiXiXiX X$.y.o.=.^.^.2.=.3.3.2.] { o...{ O.@X[.@Xh.$XqX2Xi.>X2XC.%X-X>X-XI.>XG.-XW.W.-XG.7X:Xl.5X7X2X0X_.6XiXiXiXiXiXiXiXiXiXiXiXiXiXiXiXiX",
"iXiXiXiXiXiXiXiXiXiXiXiXiXiX3XX.2.4.:.X.:.^.*.:.3.<.] { ....] -.#XoX@Xj._.0X2Xa.>X2XI.E.-X9XW.I.=XG.7X2X>X2XG.%X:Xl.5X7X2X0X_.wXiXiXiXiXiXiXiXiXiXiXiXiXiXiXiXiX",
"iXiXiXiXiXiXiXiXiXiXiXiXiXiXiX X{ <.f.2.*.&.O.,.3.2.] { X.X.` -.@XoX@Xn.j.0X1Xa.>X5X=XS.W.W.S.-XU.D.U.U.U.U.S.E.%Xl.0X7X2X0X].4XiXiXiXiXiXiXiXiXiXiXiXiXiXiXiXiX",
"iXiXiXiXiXiXiXiXiXiXiXiXiXiXiXiX<XX.*.f.4.<.,.3.3.2.] { ..X.) r.*XXX@X[.d.2X5X9.:X5X2X=XU.I.-X2X=XW.R.R.R.W.W.:X@Xs.0X2X9X0X_.wXiXiXiXiXiXiXiXiXiXiXiXiXiXiXiXiX",
"iXiXiXiXiXiXiXiXiXiXiXiXiXiXiXiXiX3X<.| ,.y.4.,.3.,.` | X.X.[ { v.[.#X%Xg.].qXv.w.9XqX0X5X0X0X0X0X0XwXwXwX5XwX7X9.#X0X2X2X3X_.tXiXiXiXiXiXiXiXiXiXiXiXiXiXiXiXiX",
"iXiXiXiXiXiXiXiXiXiXiXiXiXiXiXyXiXiXiX X=.X.&.<.4.:.) ....o._ n F P e.(.(.f.0XtX(.k.n.'.'.'.`.`.'.`.`.`.`.`.b.e.}.qX9X9X0X0X{.iXiXiXiXiXiXiXiXiXiXiXiXiXiXiXiXiX",
"iXiXiXiXiXiXiXiXiXiXiXiXiXiXiXiXiXyXiXiXyX3X/.:.%.[ ( ....( o.v.+.H H F U C d.|.$X X}.$X X#X#X X$X#X$X$X+X+X+X2X5X2X<X+X.X_.).iXiXiXiXiXiXiXiXiXiXiXiXiXiXiXiXiX",
"iXiXiXiXiXiXiXiXiXiXiXiXiXiXiXiXiXiXiXiXiXiXiX).V V N $.( ..oX%X#Xd.#.T K R K m.u.i.z.c.v.n.'.'.`.`.`.'.`.n.b.z.k.i.p.u.u.J d.iXiXiXiXiXiXiXiXiXiXiXiXiXiXiXiXiX",
"iXiXiXiXiXiXiXiXiXiXiXiXiXiXiXiXiXiXiXiXiXiX/.F ^ ^ T +.v.%XoX[.@X@X#Xj.e.5.I / D.S.S.B./ B.Z.Z.N.N.N.N./ N./ Z.m.N.M.p.i.s.3.iXiXiXiXiXiXiXiXiXiXiXiXiXiXiXiXiX",
"iXiXiXiXiXiXiXiXiXiXiXiXiXiXiXiXiXiXiXyXiX{.F ~ ~ ^ K 9.%XoXoXoX[.[.oX%X#X[.^.t.s.#.+.z.K.a.p.p.a.a.a.a.a.k.s.l.g.^._.|.<X0X^.wXiXiXiXiXiXiXiXiXiXiXiXiXiXiXiXiX",
"iXiXiXiXiXiXiXiXiXiXiXiXiXiXiXiXiXiXyXiX3XI ~ ^ ~ ~ Y d.#XoXoXoXoXoXoXoXoXoX@X%X#X'.3.4.{.$X$X X|.|.|. X$X2X1X3X0X0XtX0X9X0X(.<XiXiXiXiXiXiXiXiXiXiXiXiXiXiXiXiX",
"iXiXiXiXiXiXiXiXiXiXiXiXiXiXiXiXiXyXiXyX9.D ^ T Q ~ Y c.@XoXoXoXoXoXoXoXoXoXoXoX@X@X%X`.j.(.OX7XtXrXqXqX0X9X9X2X2X2X2X2X2XqX2X{.iXiXiXiXiXiXiXiXiXiXiXiXiXiXiXiX",
"iXiXiXiXiXiXiXiXiXiXiXiXiXiXiXiXiXiXiXyX(.8.Y ~ ~ ~ Y j.#XoXoXoXoXoXoXoXoXoXoXoXoX[.[.@XoXn.h.d.h.}.@X&X2X0X9X0X0X9X0X2X2X+X^.:.iXiXiXiXiXiXiXiXiXiXiXiXiXiXiXiX",
"iXiXiXiXiXiXiXiXiXiXiXiXiXiXiXiXiXiXiXiXiXyX.XA E ^ J d.#XoXoX#XoXoXoXoXoXoXoXoXoXoXoXoX@X#X@XoX'.v.h.f.f.j.^.(.^.^.j.f.f.g.'.d.1XiXiXiXiXiXiXiXiXiXiXiXiXiXiXiX",
"iXiXiXiXiXiXiXiXiXiXiXiXiXiXiXiXiXiXiXiXiXiXiX1XS E W #.OX@X[.oXoXoXoXoXoXoXoX#X#XoXoX@XoXoX#XoX@X#X%XoXoXoXXX`.'.XXoXoXoXoX#X'.).iXyXiXiXiXiXiXiXiXiXiXiXiXiXiX",
"iXiXiXiXiXiXiXiXiXiXiXiXiXiXiXiXiXiXiXiXiXiXyXiX4X5.R G g.%X@XoXoXoXOX@XoXoXXX'.XX`.XXXXXX'.XXoXoXoXoXoXoX%XoXoXoXoX#XoXoXoXoXoXh.iXiXyXiXiXiXiXiXiXiXiXiXiXiXiX",
"iXiXiXiXiXiXiXiXiXiXiXiXiXiXiXiXiXiXiXiXiXiXiXyXiXwXe.J V r.oXoXoXoX'.`.v.^.(./._.{.].{.).).).^.v.(.v.(.b.oX%XoXoXoXoXoXoXoXoX%Xo.{.iXyXiXiXiXiXiXiXiXiXiXiXiXiX",
"iXiXiXiXiXiXiXiXiXiXiXiXiXiXiXiXiXiXiXiXiXiXiXiXiXiXyX Xz.} >.(.v.^.(._.<XwXiXiXiXiXiXyXiXiXyXtXwX3X<X.X}.~.v.oXoXoXoXoXoXoX%Xv.F 9.iXiXiXiXiXiXiXiXiXiXiXiXiXiX",
"iXiXiXiXiXiXiXiXiXiXiXiXiXiXiXiXiXiXiXiXiXiXiXiXiXyXiXiXiXyX3X4X3XwXyXiXiXiXiXiXiXiXiXiXiXiXiXiXiXiXiXyXiXtX{.y.oXoXoXoX%X#Xy.L W Y <XiXyXiXiXiXiXiXiXiXiXiXiXiX",
"iXiXiXiXiXiXiXiXiXiXiXiXiXiXiXiXiXiXiXiXiXiXiXiXiXiXyXyXiXiXiXiXiXiXiXiXyXyXiXiXiXiXiXiXiXyXyXiXiXyXyXyXiXiXiX<Xy.OXoX[.h.#.G W / R r.iXiXyXiXiXiXiXiXiXiXiXiXiX",
"iXiXiXiXiXiXiXiXiXiXiXiXiXiXiXiXiXiXiXiXiXiXiXiXiXiXiXiXiXyXiXiXyXyXyXiXiXiXiXiXiXiXiXiXiXiXiXiXiXiXiXiXiXyXiXiX1Xo.5.U T E W Q Q W L 1XiXyXiXiXiXiXiXiXiXiXiXiX",
"iXiXiXiXiXiXiXiXiXiXiXiXiXiXiXiXiXiXiXiXiXiXiXiXiXiXiXiXiXiXiXiXiXiXiXiXiXiXiXiXiXiXiXiXiXiXiXiXiXiXiXiXiXiXiXiXiX1XL R ! Q Q Q Q ~ K 9.3XiXiXiXiXiXiXiXiXiXiXiX",
"iXiXiXiXiXiXiXiXiXiXiXiXiXiXiXiXiXiXiXiXiXiXiXiXiXiXiXiXiXiXiXiXiXiXiXiXiXiXiXiXiXiXiXiXiXiXiXiXiXiXiXiXiXiXiXiXyXiX3XP E / Q Q Q ! ^ D }.iXiXiXiXiXiXiXiXiXiXiX",
"iXiXiXiXiXiXiXiXiXiXiXiXiXiXiXiXiXiXiXiXiXiXiXiXiXiXiXiXiXiXiXiXiXiXiXiXiXiXiXiXiXiXiXiXiXiXiXiXiXiXiXiXiXiXiXiXiXyXiX1XP R / Q ~ E F y.eXiXyXiXiXiXiXiXiXiXiXiX",
"iXiXiXiXiXiXiXiXiXiXiXiXiXiXiXiXiXiXiXiXiXiXiXiXiXiXiXiXiXiXiXiXiXiXiXiXiXiXiXiXiXiXiXiXiXiXiXiXiXiXiXiXiXiXiXiXiXiXyXiX3X5.H K H U }.iXiXyXiXiXiXiXiXiXiXiXiXiX",
"iXiXiXiXiXiXiXiXiXiXiXiXiXiXiXiXiXiXiXiXiXiXiXiXiXiXiXiXiXiXiXiXiXiXiXiXiXiXiXiXiXiXiXiXiXiXiXiXiXiXiXiXiXiXiXiXiXiXiXyXiXwX(.c.].4XiXiXyXiXiXiXiXiXiXiXiXiXiXiX",
"iXiXiXiXiXiXiXiXiXiXiXiXiXiXiXiXiXiXiXiXiXiXiXiXiXiXiXiXiXiXiXiXiXiXiXiXiXiXiXiXiXiXiXiXiXiXiXiXiXiXiXiXiXiXiXiXiXiXiXiXyXiXiXiXiXiXyXyXiXiXiXiXiXiXiXiXiXiXiXiX",
"iXiXiXiXiXiXiXiXiXiXiXiXiXiXiXiXiXiXiXiXiXiXiXiXiXiXiXiXiXiXiXiXiXiXiXiXiXiXiXiXiXiXiXiXiXiXiXiXiXiXiXiXiXiXiXiXiXiXiXiXiXyXyXiXiXiXiXiXiXiXiXiXiXiXiXiXiXiXiXiX",
"iXiXiXiXiXiXiXiXiXiXiXiXiXiXiXiXiXiXiXiXiXiXiXiXiXiXiXiXiXiXiXiXiXiXiXiXiXiXiXiXiXiXiXiXiXiXiXiXiXiXiXiXiXiXiXiXiXiXiXiXiXiXiXiXiXiXiXiXiXiXiXiXiXiXiXiXiXiXiXiX",
"iXiXiXiXiXiXiXiXiXiXiXiXiXiXiXiXiXiXiXiXiXiXiXiXiXiXiXiXiXiXiXiXiXiXiXiXiXiXiXiXiXiXiXiXiXiXiXiXiXiXiXiXiXiXiXiXiXiXiXiXiXiXiXiXiXiXiXiXiXiXiXiXiXiXiXiXiXiXiXiX"
};
