/* XPM */
static char *aac632677466460ba7952571e7048d9dlqRA3uU05Ifk1z9U[] = {
/* columns rows colors chars-per-pixel */
"80 80 255 2 ",
"   c #000F75",
".  c #535B78",
"X  c #6F6D79",
"o  c #94867A",
"O  c #B19671",
"+  c #BDA57A",
"@  c #DEB469",
"#  c #D1AF78",
"$  c #F0CC79",
"%  c #00118F",
"&  c #003A88",
"*  c #003B96",
"=  c #0032A1",
"-  c #004889",
";  c #004995",
":  c #025697",
">  c #145290",
",  c #37598C",
"<  c #295091",
"1  c #285795",
"2  c #375B94",
"3  c #2F619B",
"4  c #3B649A",
"5  c #0048A6",
"6  c #0056A6",
"7  c #0E56AF",
"8  c #0057B7",
"9  c #2A58A9",
"0  c #345CAA",
"q  c #285EB2",
"w  c #0365B8",
"e  c #1169B5",
"r  c #3968A8",
"t  c #3272AE",
"y  c #2A65B6",
"u  c #3364B3",
"i  c #366AB8",
"p  c #3A6DBA",
"a  c #3C72BD",
"s  c #3A75BC",
"d  c #455D8C",
"f  c #456999",
"g  c #536890",
"h  c #747891",
"j  c #415DA5",
"k  c #436DA2",
"l  c #4573AB",
"z  c #4975AA",
"x  c #5776AB",
"c  c #466BB3",
"v  c #487BB6",
"b  c #4273BE",
"n  c #6C7BAC",
"m  c #0268C5",
"M  c #0074CB",
"N  c #006FD0",
"B  c #0079D1",
"V  c #2E6EC0",
"C  c #2978C8",
"Z  c #3979C5",
"A  c #4377C1",
"S  c #457CC4",
"D  c #497DC5",
"F  c #3C80A8",
"G  c #6C899B",
"H  c #578AAB",
"J  c #4D83B9",
"K  c #5284BB",
"L  c #7293B1",
"P  c #79A1BB",
"I  c #048AD6",
"U  c #098ED4",
"Y  c #3B83C8",
"T  c #298ED7",
"R  c #378AD4",
"E  c #3A97D9",
"W  c #37A3DA",
"Q  c #109DE1",
"!  c #02A8EB",
"~  c #32AFE9",
"^  c #4A81C6",
"/  c #4788C4",
"(  c #4583CA",
")  c #4C83C9",
"_  c #4D89CD",
"`  c #578CC5",
"'  c #5286CA",
"]  c #528BCD",
"[  c #4B95CC",
"{  c #5696CB",
"}  c #478DD2",
"|  c #548FD0",
" . c #4A97D5",
".. c #5492D1",
"X. c #5B94D2",
"o. c #559CD7",
"O. c #5C9AD4",
"+. c #6893CA",
"@. c #789AC7",
"#. c #629DD6",
"$. c #669ED5",
"%. c #4BA5DA",
"&. c #57A7D9",
"*. c #5CA3DB",
"=. c #5BB1DD",
"-. c #74AACC",
";. c #67A4D7",
":. c #63A2DA",
">. c #63AADE",
",. c #77A8D6",
"<. c #65B4DE",
"1. c #439CE0",
"2. c #49AAE4",
"3. c #59A9E1",
"4. c #49B7EA",
"5. c #5CB4E4",
"6. c #58B8E6",
"7. c #5CBCEA",
"8. c #48BEF1",
"9. c #63AEE1",
"0. c #64B4E4",
"q. c #6BB4E2",
"w. c #65BBE6",
"e. c #6CBBE6",
"r. c #64BDE9",
"t. c #69BEE9",
"y. c #75BBE6",
"u. c #10CBFA",
"i. c #37CBF8",
"p. c #49C5EE",
"a. c #59C4EC",
"s. c #4AC9F6",
"d. c #58C9F3",
"f. c #4AD4FA",
"g. c #59D7F8",
"h. c #69C6E7",
"j. c #64C4EC",
"k. c #6AC2EB",
"l. c #64CDED",
"z. c #6BCAEE",
"x. c #74C7EB",
"c. c #66D2EF",
"v. c #76D0EF",
"b. c #63CBF2",
"n. c #6BCCF1",
"m. c #66D5F3",
"M. c #6AD4F2",
"N. c #6BDBF4",
"B. c #73D8F4",
"V. c #45E3FD",
"C. c #55E3FC",
"Z. c #73E1F6",
"A. c #92898D",
"S. c #A79A8E",
"D. c #B3A793",
"F. c #9197A8",
"G. c #8898B9",
"H. c #A29FA5",
"J. c #8AAABD",
"K. c #96A6B7",
"L. c #B3AFAD",
"P. c #A9B5B8",
"I. c #C9B089",
"U. c #D5B888",
"Y. c #C8B898",
"T. c #D3BE97",
"R. c #E4BC96",
"E. c #C3B8A6",
"W. c #C4BEB5",
"Q. c #BBC2AD",
"!. c #BAC5BB",
"~. c #D8C392",
"^. c #D9C599",
"/. c #E3C587",
"(. c #E5CA96",
"). c #F3D495",
"_. c #CAC3A9",
"`. c #D7C9A5",
"'. c #C7CAB9",
"]. c #D4CBB5",
"[. c #CDD3B7",
"{. c #DAD4BA",
"}. c #E5D3AB",
"|. c #ECD6AB",
" X c #E8D9B7",
".X c #FFE8BD",
"XX c #86ABC6",
"oX c #8FACC9",
"OX c #96B7CB",
"+X c #86ACD6",
"@X c #8BB8D6",
"#X c #97BAD4",
"$X c #A4B3CC",
"%X c #A6BAC8",
"&X c #B5B8C4",
"*X c #99C3D6",
"=X c #94C8D5",
"-X c #A5C8CD",
";X c #B8C9C7",
":X c #A6C6D5",
">X c #A5C6D9",
",X c #ACCADC",
"<X c #B7C9D3",
"1X c #B2CDDD",
"2X c #B1D3D0",
"3X c #B8D2DE",
"4X c #88C8E6",
"5X c #97C7E7",
"6X c #8FD4EB",
"7X c #86D7F4",
"8X c #97D8F4",
"9X c #AACCE2",
"0X c #AED4ED",
"qX c #B5D1E1",
"wX c #BBD5E3",
"eX c #BDD7E9",
"rX c #93E4EF",
"tX c #AFE5F0",
"yX c #CACBC4",
"uX c #C8D4C9",
"iX c #D7D6CA",
"pX c #C8D4D8",
"aX c #D6D9D9",
"sX c #E5DDC7",
"dX c #EBDDCE",
"fX c #D9E4D9",
"gX c #ECE3CA",
"hX c #F5E5C7",
"jX c #EAE6D6",
"kX c #F7EBD5",
"lX c #FDF1DC",
"zX c #C3D9E6",
"xX c #C5D9E4",
"cX c #C5DCE9",
"vX c #CADEEA",
"bX c #CADEEC",
"nX c #CEE0EB",
"mX c #CDEBE8",
"MX c #D3E4ED",
"NX c #D9E6E9",
"BX c #D9E7EF",
"VX c #C8E4F1",
"CX c #DBE9F3",
"ZX c #DCEAF1",
"AX c #E9ECE6",
"SX c #FDF5E8",
"DX c #E3EDF3",
"FX c #E7F0F5",
"GX c #EBF2F6",
"HX c #E5F3FF",
"JX c #EEF5F8",
"KX c #FCF9F4",
"LX c #F1F6F9",
"PX c #F5F9FB",
"IX c #FEFFFF",
/* pixels */
"IXIXIXIXIXIXIXIXIXIXIXIXIXIXIXIXIXIXIXIXIXIXIXIXIXIXIXIXIXIXIXIXIXIXIXIXIXIXIXIXIXIXIXIXIXIXIXIXIXIXIXIXIXIXIXIXIXIXIXIXIXIXIXIXIXIXIXIXIXIXIXIXIXIXIXIXIXIXIXIX",
"IXIXIXIXIXIXIXIXIXIXIXIXIXIXIXIXIXIXIXIXIXIXIXIXIXIXIXIXIXIXIXIXIXIXIXIXIXIXIXIXIXIXIXIXIXIXIXIXIXIXIXIXIXIXIXIXIXIXIXIXIXIXIXIXIXIXIXIXIXIXIXIXIXIXIXIXIXIXIXIX",
"IXIXIXIXIXIXIXIXIXIXIXIXIXIXIXIXIXIXIXIXIXIXIXIXIXIXIXIXIXIXIXIXIXIXIXIXIXIXIXIXIXIXIXIXIXIXIXIXIXIXIXIXIXIXIXIXIXIXIXIXIXIXIXIXIXIXIXIXIXIXIXIXIXIXIXIXIXIXIXIX",
"IXIXIXIXIXIXIXIXIXIXIXIXIXIXIXIXIXIXIXIXIXIXIXIXIXIXIXIXIXIXIXIXIXIXIXIXIXIXIXIXIXIXIXIXIXIXIXIXIXIXIXIXIXIXIXIXIXIXIXIXIXIXIXIXIXIXIXIXIXIXIXIXIXIXIXIXIXIXIXIX",
"IXIXIXIXIXIXIXIXIXIXIXIXIXIXIXIXIXIXIXIXIXIXIXIXIXIXIXIXIXIXIXIXIXIXIXIXIXIXIXIXIXIXIXIXIXIXIXIXIXIXIXIXIXIXIXIXIXIXIXIXIXIXIXIXIXIXIXIXIXIXIXIXIXIXIXIXIXIXIXIX",
"IXIXIXIXIXIXIXIXIXIXIXIXIXIXIXIXIXIXIXIXIXIXIXIXIXIXIXIXIXIXIXIXIXIXIXIXIXIXIXIXIXIXIXIXIXIXIXIXIXIXIXIXIXIXIXIXIXIXIXIXIXIXIXIXIXIXIXIXIXIXIXIXIXIXIXIXIXIXIXIX",
"IXIXIXIXIXIXIXIXIXIXIXIXIXIXIXIXIXIXIXIXIXIXIXIXIXIXIXIXIXIXIXIXIXIXIXIXIXIXIXIXIXIXIXIXIXIXIXIXIXIXIXIXIXIXIXIXIXIXIXIXIXIXIXIXIXIXIXIXIXIXIXIXIXIXIXIXIXIXIXIX",
"IXIXIXIXIXIXIXIXIXIXIXIXIXIXIXIXIXIXIXIXIXIXIXIXIXIXIXIXIXIXIXIXIXIXIXIXIXIXIXIXIXIXIXIXIXIXIXIXIXIXIXIXIXIXIXIXIXIXIXIXIXIXIXIXIXIXIXIXIXIXIXIXIXIXIXIXIXIXIXIX",
"IXIXIXIXIXIXIXIXIXIXIXIXIXIXIXIXIXIXIXIXIXIXIXIXIXIXIXIXIXIXIXIXIXIXIXIXIXIXIXIXIXIXIXIXIXIXIXIXIXIXIXIXIXIXIXIXIXIXIXIXIXIXIXIXIXIXIXIXIXIXIXIXIXIXIXIXIXIXIXIX",
"IXIXIXIXIXIXIXIXIXIXIXIXIXIXIXIXIXIXIXIXIXIXIXIXIXIXIXIXIXIXIXIXIXIXIXIXIXIXIXIXIXIXIXIXIXIXIXIXIXIXIXIXIXIXIXIXIXIXIXIXIXIXIXIXIXIXIXIXIXIXIXIXIXIXIXIXIXIXIXIX",
"IXIXIXIXIXIXIXIXIXIXIXIXIXIXIXIXIXIXIXIXIXIXIXIXIXIXIXIXIXIXIXIXIXIXIXIXIXIXIXIXIXIXIXIXIXIXIXIXIXIXIXIXIXIXIXIXIXIXIXIXIXIXIXIXIXIXIXIXIXIXIXIXIXIXIXIXIXIXIXIX",
"IXIXIXIXIXIXIXIXIXIXIXIXIXIXIXIXIXIXIXIXIXIXIXIXIXIXIXIXIXIXIXIXIXIXIXIXIXIXIXIXIXIXIXIXIXIXIXIXIXIXIXIXIXIXIXIXIXIXIXIXIXIXIXIXIXIXIXIXIXIXIXIXIXIXIXIXIXIXIXIX",
"IXIXIXIXIXIXIXIXIXIXIXIXIXIXIXIXIXIXIXIXIXIXIXIXIXIXIXIXIXIXIXIXIXIXIXIXIXIXIXIXIXIXIXIXIXIXIXIXIXIXIXIXIXIXIXIXIXIXIXIXIXIXIXIXIXIXIXIXIXIXIXIXIXIXIXIXIXIXIXIX",
"IXIXIXIXIXIXIXIXIXIXIXIXIXIXIXIXIXIXIXIXIXIXIXIXIXIXIXIXIXIXIXIXIXIXIXIXIXIXIXIXIXIXIXIXIXIXIXIXIXIXIXIXIXIXIXIXIXIXIXIXIXIXIXIXIXIXIXIXIXIXIXIXIXIXIXIXIXIXIXIX",
"IXIXIXIXIXIXIXIXIXIXIXIXIXIXIXIXIXIXIXIXIXIXIXIXIXIXIXIXIXIXIXIXIXIXIXIXIXIXIXIXIXIXIXIXIXIXIXIXIXIXIXIXIXIXIXIXIXIXIXIXIXIXIXIXIXIXIXIXIXIXIXIXIXIXIXIXIXIXIXIX",
"IXIXIXIXIXIXIXIXIXIXIXIXIXIXIXIXIXIXIXIXIXIXIXIXIXIXIXIXIXIXIXIXIXIXIXIXIXIXIXIXIXIXIXIXIXIXIXIXIXIXIXIXIXIXIXIXIXIXIXIXIXIXIXIXIXIXIXIXIXIXIXIXIXIXIXIXIXIXIXIX",
"IXIXIXIXIXIXIXIXIXIXIXIXIXIXIXIXIXIXIXIXIXIXIXIXIXIXIXIXIXIXIXIXIXIXIXIXIXIXIXIXIXIXIXIXIXIXIXIXIXIXIXIXIXIXIXIXIXIXIXIXIXIXIXIXIXIXIXIXIXIXIXIXIXIXIXIXIXIXIXIX",
"IXIXIXIXIXIXIXIXIXIXIXIXIXIXIXIXIXIXIXIXIXIXIXIXIXIXIXIXIXIXIXIXIXIXIXIXIXIXIXIXIXIXIXIXIXIXIXIXIXIXIXIXIXIXIXIXIXIXIXIXIXIXIXIXIXIXIXIXIXIXIXIXIXIXIXIXIXIXIXIX",
"IXIXIXIXIXIXIXIXIXIXIXIXIXIXIXKXSXSXSXSXSXSXKXIXIXIXKXIXIXIXIXIXIXIXIXIXPXIXIXIXIXPXIXIXIXIXIXIXIXIXIXIXIXIXIXIXIXIXIXIXIXIXIXIXIXIXIXIXIXIXIXIXIXIXIXIXIXIXIXIX",
"IXIXIXIXIXIXIXIXIXIXIXIXIXSXhXfXtXtXtXrXtXtXfXjXSXIXIXIXIXIXIXIXPXIXIXKXPXPXPXPXLXIXPXIXIXIXIXIXIXIXIXIXIXIXKXIXIXIXIXIXIXIXIXIXIXIXIXIXIXIXIXIXIXIXIXIXIXIXIXIX",
"IXIXIXIXIXIXIXIXIXIXIXIXkXgXtXC.C.C.C.C.C.C.g.v.2XlXIXhX|. XkXIXIXIXPXPXJXJXGXGXJXPXPXPXIXIXIXIXIXIXIXIXIXIXIXIXIXIXIXIXIXIXIXIXIXIXIXIXIXIXIXIXIXIXIXIXIXIXIXIX",
"IXIXIXIXIXIXIXIXIXIXIXkX{.Z.f.N.c.N.N.N.N.N.c.c.p.'.).~.P.K.I..XKXkXgXdXkXBXBXZXDXDXJXPXPXIXPXIXIXIXIXIXKXSXlXkXlXKXIXIXIXIXIXIXIXIXIXIXIXIXIXIXIXIXIXIXIXIXIXIX",
"IXIXIXIXIXIXIXIXIXIXlX XZ.g.x.n.c.c.c.c.c.h.c.h.p.=X~.=.2.W -.$ L.G.L F.Y.).uXxXnXMXDXGXLXPXPXIXPXPXIXhXiX2X-X-X'.|.hXIXIXIXIXIXIXIXIXIXIXIXIXIXIXIXIXIXIXIXIXIX",
"IXIXIXIXIXIXIXIXIXIX|.6Xg.x.r.k.h.h.h.h.a.a.a.h.<.<.<.&.;. .K.L.J Y J D e H./.<X<XpXNXDXHXJXJXPXPXPX X=Xd.l.g.b.b.6XuXhXKXIXIXIXIXIXIXIXIXIXIXIXIXIXIXIXIXIXIXIX",
"IXIXIXIXIXIXIXIXIXlX[.g.k.e.r.r.w.w.w.<.a.=.=.=.=.=.&.{ { { K Y J K J t e 8 # _.#X9XzXMXCXFXjXgXkX X_.f.n.v.n.n.z.z.n.zXhXKXIXIXIXIXIXIXIXIXIXIXIXIXIXIXIXIXIXIX",
"IXIXIXIXIXIXIXIXIX|.=Xd.e.r.w.w.w.6.4.~ %.&.&.&.&.{ { { { ` K H z l 6 g S.# /.(.T._.<XcXiX].-X*X-X_.'.j.k.k.k.k.k.k.y.v.pXkXIXIXIXIXIXIXIXIXIXIXIXKXIXIXIXIXIXIX",
"IXIXIXIXIXIXIXIXIX`.j.j.e.r.w.w.4.q.OXXX . .{ [ { [ K K K J H z r : S.(.}.2X=X=X2X'.`.{.'.l.s.d.d.8.j.k.k.k.k.k.k.t.e.x.0XgXhXsXsXlXIXPXSXSXSXKXIXIXIXIXIXIXIXIX",
"IXIXIXIXIXIXKXSXkX'.a.e.e.w.w.w.!.^.`._.P./ / / J K { H J z k x - L.hX9Xg.f.g.g.f.s.4X~.:Xs.x.x.y.x.k.k.k.k.k.a.k.t.e.y.6XjXyX+.G.T.hX XE.L._.`.|.kXIXIXIXIXIXIX",
"IXIXIXIXIXlX).Q.^.'.8.y.e.w.r.w.yX%X>.>.P.F.e J J J v z z x f % H.kXv.s.n.v.v.v.v.x.s.4X;Xx.j.k.k.k.k.k.t.r.y.,Xt.t.t.y.0XjX$XN B +XT.@.1.o.O.$.XXD.|.KXIXIXIXIX",
"IXIXIXIXkX/.4X~ -X!.8.e.w.w.e.0.4.2.&.W oXL.y r l t z z z : : h jX8Xi.v.n.n.n.b.j.n.z.j.y.t.j.k.t.k.r.r.t.8.<XuXt.y.y.5X0XjXG.C | | | o.$.$.:.:.*.o.S.R.IXIXIXIX",
"IXIXIXSX$ 4X~ 4.OX;X4.e.w.e.e.0.0.>.,.} %XD.7 r r k k z : L sXAXMXk.z.z.k.n.z.k.n.k.k.k.j.r.t.k.t.k.k.r.t.~ iXvX8X5X5X0XZXyXV Z D | | #.#.#.$.$.,.:.:.O dXIXIXIX",
"IXIXIX|.!.i.6.2.-.P.6.e.0.0.0.9.>.;.:.E ].H.: f 4 4 k : F.kXnXx.7.k.r.n.j.j.k.k.t.k.k.t.k.t.k.r.k.t.r.r.w.W $XkXCXVXVXDXiXn e D D D X.X.#.#.#.:.$.$.9.A.R.IXIXIX",
"IXIXSX(.x.8.5.2.o.P.e.5.q.9.q.q.>.O.U ;X}.4 > 4 2 f > g }.eX~ 7.r.r.7.r.r.r.r.r.t.t.t.t.t.t.r.t.t.t.r.0.3.3.T $XaXaXaX&Xc 8 A Z D ' X.X.X.$.#.#.#.$.:.G.# KXPXIX",
"IXIXSX^.j.d.3.2.T G.%X4.3.3.o.1.} X.pXdXh * 2 , 2 d - D.uX~ b.r.r.7.5.5.0.0.0.0.0.e.0.w.0.t.t.t.t.r.r.0.3.o.} B m b e 8 q p p A D ] | X.X.#.#.#.:.$.3.G.U.KXIXPX",
"PXPXJX/.=X8.5. .R C H.&X@X+X,.#XqXAXdXh * 2 < , , : g I.=X8.t.0.7.5.5.3.3.3.3.5.9.9.9.0.0.q.t.t.t.t.0.3.3. .} } D p p a p p b A D X.] X.X.X.#.#.$.$.3.G.R.KXPXPX",
"PXPXsX_.=X8.6. .} Y V H.E.'.{.sXaXP.; & d < , < , - X _.b.7.w.7.5.3.3.o.o.o.o.*.o.3.9.9.0.9.9.q.0.9.0.3.*.o.| D S Z a p p a A D D D | | #.#.$.#.1.E 1.Y. XHXLXLX",
"PXjXQ.f.b.r.6.%. .} s 8 r n h x * % < , < < , , , - o !.s.w.r.7.5.9.#. .} }  ...o.o.o.9.9.9.9.9.9.9.9.:.:.o. ._ ( S b Z Z b D ^ ] | X.X.X.X.#.$.$XG.W.# |.CXDXFX",
"GX(.v.g.z.a.7.3.%.R Y b e 8 5 = < j 2 < 2 , 2 , , - o ;X8.e.7.0.5.T B S ( ( ( ( ( | ..o.#.:.9.9.9.9.9.:.:.X...| ) ( D S D D ^ ) D ] X.X.X.X.| @.E.E.L.,.L.}.MXDX",
"jX[.g.v.n.j.r.6.%.%.} Y s l s t 0 1 9 2 2 3 4 , 2 - o *X8.w.r.r.2.#X&XD w A Z A A D _ | X.O.9.:.;.9.;.:.:.o....._ _ ) ^ ) ) ) ] | ] | X.] D D ] D | 1.X.1.W.sXbX",
"jXuXf.v.m.l.j.7.6.%.%.} Y Y s F r r 0 0 4 4 4 4 f - X -Xd.r.t.4.>XgXaXpXx 6 i i Z Z D _ | o.O.:.;.:.:.:.#.#.X.X...] ] ' _ ' ] ] | X.D ] D D A C Z D | +...+X}.xX",
"jXaXg.B.N.m.b.j.a.=.%.%.%.[ [ F S b t r k r f 4 f 1 . P.N.a.k.4.,X9Xy.VX&X5 9 u i Z A D _ ..O.:.$.9.:.:.#.O.X.X.X...` ] ] ] ] ] D D D D A q q n n Z Z +.X.;.iXpX",
"jXfXg.B.N.N.M.b.l.a.a.a.a.=.%.[ [ / J s l l k k f 4 , G 6Xl.h.k.w.e.5XeXaXg = u 0 u Z A _ | O.O.#.$.:.:.#.#.#.#.X.X.X.X.X.| | ] D A D A 8 n R.sXsX].@.} #.#.sXuX",
"MXjXrXC.Z.N.N.m.c.c.c.c.c.a.=.=.%.[ ` J v z l l k f , . !.8Xx.4X4X5X5XVXdXj = 0 q u p A ) | o.#.#.#.$.#.:.#.#.O.O.X.X.X.X.] ] ' A A u 9 0 ].kXzX5XaXaX+.( ,.jX<X",
"cXjXVXV.Z.N.N.N.N.c.c.c.c.c.p.%.&.[ [ K J v z l r f > g ~.2X0X8X5X8X0XAX&X= 9 9 q u p A _ | X.O.#.:.:.:.#.#.#.X.#.X.O.X.X.X.] ^ A u j = F.dXzX$.o.+XjX$XB #XgX%X",
"cXpXkXrXV.Z.Z.N.N.N.N.c.N.p.-X=.%.{ [ { J J z z k f - + yXy.<XaXMXNXkX].j 5 q q q u Z S _ | X.#.#.:.$.#.#.#.#.#.#.X.X.X.X.| ' A c 0 j % F.AX5X#.| +X&X$.} pXsX-.",
"cX9XpXjXrXV.Z.Z.N.N.N.N.i.-XY.%.%.%.&.{ K K v z f 4 - + ,X! %.oX&XW.K.q 5 u q q u V Z D | X.X.#.:.#.#.#.#.#.X.#.X.#.X.X.X.' ' A u 9 j = n dX0X#.X.| | | q.gXL.P ",
"vXqX=X;X{.tXC.C.N.N.N.V.=X`.&.W [ &.{ { K K J z k f & O 2X~ ~ I N m 8 m V V q V V Z D }  .o.#.#.#.#.:.#.X.X.X.X.X.X.+.X.X.] D A u 0 < j % L.jX@X .| } 1.{.(.H P ",
"nXwX2XXXK.^.[.rXrXZ.Z.=XQ.%.Q [ %.%.&.{ { K J z f f - . ^.4X~ %.E T C Z C V C V Z ( }  .o.:.:.9.9.9.o.O.X.| | | X.X.| X.| ' D A u 9 < < < = E.dX%X$X$XW./.G H J.",
"MXzX1X*XXXH D.(.-X-XJ.-.U U W W %.%.&.{ { H J z k f d   O '.i.2.2.1.E R R R R R } } 1.o.*.3.9.9.9.:.o.X.] _ ) ' ] ] ....` ' ^ A p 0 9 9 < < = F.Y.R.R.R.D.F L J.",
"MXcXwX,XOX-.H.!.u.! ! ! W W W 4.%.=.&.&.&.K J J k 4 g & o [.p.4.4.2.W 1.1.E 1. .1.3.3.3.9.9.9.9.:.o..._ ( D D ( ^ _ ' ] ] ] ) A p 0 0 9 9 9 0 = = c m G.~.L P OX",
"ZXnXxX1X,X@XP.!.u.p.i.~ 4.~ 4.6.=.=.=.;.{ { J z z 4 d - X /.4Xi.7.8.4.4.4.2.2.4.2.5.5.0.9.0.0.0.>.X.( D a a a a S ^ ) ' ' ' ) D A p u u 9 0 0 c c c m G.~.J.+X%X",
"DXMXvXwXqX>X#X_.c.u.a.p.p.p.p.a.6.<.=.&.$.H J l 4 4 , d - + `.s.s.j.k.a.7.8.7.6.7.7.7.r.0.0.0.5.W T Z p p i p p b S ^ ) _ ' ) D A A p p j u u p A m A Y.^.oX#X,X",
"DXBXnXvXzXqX9X:X!.C.i.C.g.c.a.c.a.<.<.&.O./ v l 4 4 , , , < @ [.n.i.f.d.d.b.b.b.b.r.t.r.r.t.5.@XW.@.m p u u u i p A D ) _ ' ) D D D D A A A A Z D D.R.R.$X#X<XqX",
"GXDXZXnXvXzXwX1X2X2XrXZ.C.c.g.l.j.j.<.<.&.[ J l 4 , , > . < , # `.2X8Xv.b.b.n.b.n.n.n.n.t.t.0.y.yXU.y q 0 q u i p Z S ) ' ) ) ' D D D D A D D D n K.E.`.>X>X3XcX",
"JXDXDXMXnXvXzXwX1X:X;X!.`.Q.c.c.h.h.h.<.#.{ J t 4 - - . - - > : o D.D.~.pXg.n.n.n.n.n.v.t.y.y.4XwX/.r 7 r q u u p A D D D _ ' _ D ] D D D D D ] D B $.R.pX9XzXvX",
"LXJXGXDXBXMXvXcXwX1X=X=X^.`.C.c.l.h.w.<.&.{ / F : h I.D.+ o > , : 1 - X  X7Xf.B.B.v.7X7X7X7X8XtXgXD.5 0 9 q u u p A D D ' ' ' D D ] D D D D D ' D D +X XpXeXvXBX",
"PXJXJXFXDXCXBXnXzXwX,X*X;X^.B.g.c.h.a.<.<.&.J e z /.L.C H ~.A.: f 4 f - L.jX7Xg.m.B.7X8X8XtXtXZX/.c 8 y q u i s A S D ) ) ) ) _ ' D _ D ' _ ' D ] C K.sXzXvXMXDX",
"IXPXJXJXFXDXZXBXmXeX3X,X5X_.;Xg.g.g.h.e.=.%.[ w D.^.U P U K.# 2 3 4 k f : H.iXeXrX7X7XtXtXVXaXT.n 8 u y y i s a S S ^ _ _ ' ' ' ' D D D D D D ' ' C yXjXeXNXNXDX",
"PXPXLXLXJXJXFXZXBXnXeX3X9X>X`.2X6X!.(.=X4.<.o.U D._.! $.[ P /.g > 4 z z f ; g L.'.iXiXuXiXW.K.C N V y V V Z Z ( ^ ) _ ' _ } H.+.] ] ' D ' | X.D M $XgXcXnXZXDXGX",
"IXIXIXPXPXJXJXFXZXBXnXeX3X1X9X'.yX[./.=Xp.<.%.W P _.P.XXW XX~.g r z z e t x 1 - - A.^.,.o.T B T ( Z R Z Y ( ( } _ _ _ _ ] C I.K.N C D ' D C N S &XgXvXvXBXDXGXJX",
"IXPXIXPXPXLXLXJXFXDXBXnXeXwX3X9X9X5X`.!.i.h.<.=.W -.K.-.! [.~.: 6 6 w &XP.6 x x 6 6 # !.! Q o. .T I } } } } | | | ] ] ` R +.U.U.&X@.) Z D +.$XuXjXxXvXBXDXFXJXLX",
"IXIXIXIXIXPXPXPXLXGXZXCXmXnXzXwXwXqX3X`.=Xf.p.p.p.i.! p.!.^.F.P L G.;XgXhXG.w t n I.}.].W.3.! ! ;.XX! 1.O.o.o...X.X.X.R R U.+ G L.iXpXpXaXaXaXaXzXvXBXDXFXJXLXPX",
"IXIXKXIXPXIXIXPXPXLXGXFXZXBXMXnXcXzXeX3X[.'.-X=X=X=X!.`.Y.G H P K.;X;X@X;X{._._.].].9X9XpXyX%X:X].{.P.o.E 1.o.o. .E R P # @ x k H J.%X<XqXqXqXeXvXBXZXDXJXLXPXPX",
"IXIXIXIXIXIXIXPXIXPXPXJXFXFXZXBXNXMXnXnXVXpXuX'.!.Q.Q.J.L L P J.-.@X@X#X@X*X-X<X#X>X9XqXzXbXnXNXMXbXiX_.$X,.:.:.G.H.# @ O H H L -.XX@X#X9XqXzXvXBXZXGXLXLXPXPXIX",
"IXIXIXIXIXIXIXIXPXIXPXLXLXJXFXFXDXZXBXBXMXvXcXwX1X>X#XOXOXOXOXOX#X*X*X>X#X*X*X*X9X,XqXwXxXnXmXMXMXMXcXwX'.T.U.# @ # S.L H L P XXOX#X,X1XwXcXnXBXDXGXGXLXPXPXPXIX",
"IXIXIXIXIXIXIXIXIXIXIXPXPXPXLXJXJXFXDXZXBXMXvXvXzXwX1X,X#X:X>X>X>X>X,X>X>X,X>X,X1XqXwXcXcXMXBXBXBXMXvXzX9X,X-X$XOX-.-.P XXoXOX#X:X,XqXwXvXnXBXDXFXGXLXPXPXIXIXIX",
"IXIXIXIXIXIXIXIXIXIXIXIXIXPXPXLXLXJXGXFXDXZXMXMXvXcXzXwXwXqX,X1X1X9X,X,X,X,X1XqXwXwXzXvXMXBXZXZXCXBXMXcXzX1X>X>X$X#XOX#X*X-X:X,X3XwXxXvXMXBXZXFXGXPXPXPXIXIXIXIX",
"IXIXIXIXIXIXIXIXIXIXIXIXIXIXIXPXPXLXLXFXDXDXZXBXnXvXvXzXzXeXwXwXwXqXwXwXwXwXwXwXeXzXvXnXBXZXDXFXDXDXBXMXcXzXqXqX,X,X,X,X,X1X1XwXwXcXnXMXBXDXFXJXPXPXPXPXIXIXIXIX",
"IXIXIXIXIXIXIXIXIXIXIXIXIXIXIXPXPXPXLXJXFXFXDXDXBXBXMXnXvXcXxXxXzXwXzXwXzXwXzXzXcXnXnXBXBXFXFXFXGXDXDXMXnXnXxXzXwXqXwXqXqXzXzXxXcXnXMXCXZXFXGXLXPXPXIXIXIXIXIXIX",
"IXIXIXIXIXIXIXIXIXIXIXIXIXIXIXIXPXIXPXLXJXJXFXDXZXZXCXBXMXMXnXvXvXcXcXcXxXcXcXvXnXMXBXBXZXFXFXFXGXDXDXDXBXnXvXzXzXzXzXzXxXxXcXnXMXBXBXDXFXGXJXPXPXPXIXIXIXIXIXIX",
"IXIXIXIXIXIXIXIXIXIXIXIXIXIXIXIXIXPXPXPXPXJXJXGXFXDXDXZXCXBXBXMXnXnXvXvXvXvXvXMXMXMXZXDXFXFXJXJXGXGXGXDXDXMXMXnXvXvXvXvXvXvXnXMXMXBXDXDXFXJXLXIXPXIXIXIXIXIXIXIX",
"IXIXIXIXIXIXIXIXIXIXIXIXIXIXIXIXIXIXIXPXPXPXJXJXJXJXFXFXDXDXCXBXBXBXMXMXMXMXMXMXMXZXDXDXFXJXJXLXLXLXGXGXDXDXZXZXMXMXMXMXMXMXMXBXZXDXFXGXLXLXPXPXIXIXIXIXIXIXIXIX",
"IXIXIXIXIXIXIXIXIXIXIXIXIXIXIXIXIXPXIXPXPXLXPXPXLXLXJXJXFXFXDXDXZXZXBXBXMXBXBXZXZXDXDXFXGXJXPXPXPXLXLXGXGXFXDXDXBXBXBXZXBXZXDXDXDXFXGXJXPXPXIXIXIXIXIXIXIXIXIXIX",
"IXIXIXIXIXIXIXIXIXIXIXIXIXIXIXIXIXIXIXIXIXIXIXPXPXPXLXLXJXJXGXFXDXDXDXDXDXCXZXDXDXGXGXGXLXLXPXPXPXPXPXPXJXGXGXFXDXDXDXDXDXDXDXDXGXJXLXLXPXPXPXIXPXIXIXIXIXIXIXIX",
"IXIXIXIXIXIXIXIXIXIXIXIXIXIXIXIXIXIXIXIXIXIXPXPXPXPXPXLXPXJXJXJXGXGXDXDXDXDXDXDXDXGXGXPXPXPXPXPXIXPXPXPXPXJXJXGXGXGXGXGXFXGXGXGXJXJXPXPXIXPXIXPXIXIXIXIXIXIXIXIX",
"IXIXIXIXIXIXIXIXIXIXIXIXIXIXIXIXIXIXIXIXPXIXIXIXIXIXIXPXPXPXPXPXLXLXJXGXJXGXGXJXGXLXJXLXPXPXPXPXPXIXPXPXPXPXPXPXJXLXJXGXJXJXLXJXPXLXPXIXPXPXIXIXIXIXIXIXIXIXIXIX",
"IXIXIXIXIXIXIXIXIXIXIXIXIXIXIXIXIXIXIXIXIXIXIXIXIXIXIXIXIXPXPXPXPXPXLXLXLXJXJXJXLXPXPXPXPXIXPXIXIXIXIXPXIXPXPXPXPXPXPXPXPXPXPXPXPXIXPXIXIXIXIXIXIXIXIXIXIXIXIXIX",
"IXIXIXIXIXIXIXIXIXIXIXIXIXIXIXIXIXIXIXIXIXIXIXIXIXKXIXPXIXPXIXIXPXPXPXPXPXLXPXPXPXPXPXPXPXIXIXIXIXIXPXIXIXPXPXIXPXPXPXPXPXPXIXPXIXPXPXIXIXPXIXIXIXIXIXIXIXIXIXIX",
"IXIXIXIXIXIXIXIXIXIXIXIXIXIXIXIXIXIXIXIXIXIXIXIXIXIXIXIXIXPXPXIXPXPXPXPXPXPXPXPXIXKXIXPXIXPXIXIXIXPXIXIXIXIXPXPXIXPXIXPXPXPXIXPXIXPXIXIXIXIXIXIXIXIXIXIXIXIXIXIX",
"IXIXIXIXIXIXIXIXIXIXIXIXIXIXIXIXIXIXIXIXIXIXIXIXIXIXIXIXIXIXIXIXIXIXIXPXIXIXIXPXIXPXIXIXIXIXIXIXIXIXIXIXIXIXIXIXPXIXIXIXIXIXIXIXIXIXIXIXIXIXIXIXIXIXIXIXIXIXIXIX"
};
